<?xml version="1.0" standalone="no"?>
<!DOCTYPE svg PUBLIC "-//W3C//DTD SVG 20010904//EN"
  "http://www.w3.org/TR/2001/REC-SVG-20010904/DTD/svg10.dtd">
<svg version="1.0" xmlns="http://www.w3.org/2000/svg"
     width="856.000000pt" height="856.000000pt" viewBox="0 0 856.000000 856.000000"
     preserveAspectRatio="xMidYMid meet">
  <metadata>
    Created by potrace 1.11, written by Peter Selinger 2001-2013
  </metadata>
  <g transform="translate(0.000000,856.000000) scale(0.100000,-0.100000)"
     fill="#000000" stroke="none">
    <path d="M3637 7839 c-77 -18 -147 -72 -183 -140 -25 -49 -30 -165 -10 -226
35 -105 123 -173 234 -180 108 -8 191 33 150 73 -14 14 -23 15 -67 4 -133 -32
-260 65 -261 198 0 107 76 190 192 208 66 10 82 28 52 58 -17 17 -48 19 -107
5z"/>
    <path d="M4184 7618 c-15 -24 -18 -246 -4 -263 24 -29 45 -10 95 90 31 62 57
101 68 103 15 3 17 -6 17 -90 0 -97 8 -118 41 -118 26 0 28 8 30 119 1 111 -9
142 -57 163 -33 15 -82 -10 -110 -55 l-19 -32 -5 45 c-4 37 -9 46 -27 48 -11
2 -25 -3 -29 -10z"/>
    <path d="M2757 7598 c-25 -13 -22 -27 28 -144 25 -57 45 -108 45 -112 0 -4
-20 -19 -43 -33 -93 -56 -104 -193 -22 -257 53 -42 108 -24 145 47 11 21 14
22 22 8 12 -22 54 -22 62 -1 5 12 -111 305 -186 469 -13 29 -29 36 -51 23z
m113 -386 c0 -57 -23 -112 -48 -112 -29 0 -44 25 -46 71 -1 35 5 46 38 76 45
41 56 34 56 -35z"/>
    <path d="M3905 7577 c-79 -79 -47 -218 56 -249 79 -23 149 41 149 135 0 89
-50 147 -127 147 -38 0 -51 -6 -78 -33z m129 -59 c29 -41 13 -121 -26 -133
-30 -10 -55 4 -73 42 -15 30 -15 42 -6 75 19 62 68 69 105 16z"/>
    <path d="M4522 7594 c-39 -27 -30 -74 28 -137 28 -30 50 -60 50 -67 0 -8 -18
-11 -62 -8 -55 3 -63 1 -66 -16 -6 -31 25 -46 98 -46 52 0 71 4 83 18 33 37
15 86 -56 158 -44 44 -36 57 31 52 53 -3 57 -1 60 19 3 17 -3 26 -23 33 -40
15 -118 12 -143 -6z"/>
    <path d="M4756 7583 c-10 -34 -26 -148 -26 -189 0 -76 65 -116 130 -79 33 19
37 18 43 -5 6 -25 33 -36 50 -21 16 12 53 241 44 265 -4 9 -16 16 -27 16 -21
0 -26 -9 -50 -85 -18 -57 -66 -115 -96 -115 -21 0 -24 4 -24 38 0 20 5 66 10
101 8 46 8 67 -1 77 -16 20 -47 17 -53 -3z"/>
    <path d="M5092 7528 c-5 -7 -24 -64 -41 -127 -22 -83 -27 -119 -20 -132 16
-31 36 -22 78 34 53 72 117 131 125 118 4 -6 -2 -44 -13 -84 -27 -94 -27 -123
-1 -130 16 -4 29 6 59 46 51 69 110 129 121 122 5 -3 -3 -46 -16 -96 -26 -95
-23 -119 16 -119 19 0 29 22 54 112 41 148 -9 220 -107 154 l-36 -25 -7 35
c-12 67 -85 82 -136 28 -32 -33 -38 -30 -25 12 10 32 9 38 -8 50 -23 17 -30
17 -43 2z"/>
    <path d="M3074 7436 c-73 -33 -102 -127 -66 -210 26 -57 72 -81 138 -72 54 7
113 42 120 71 12 50 -17 58 -74 21 -38 -25 -52 -29 -86 -27 -13 1 -5 8 24 24
57 30 85 68 85 117 0 70 -71 108 -141 76z m74 -73 c3 -22 -48 -73 -74 -73 -30
0 -6 71 30 88 28 14 40 10 44 -15z"/>
    <path d="M6158 7413 c-20 -23 -247 -421 -249 -437 -1 -6 -1 -16 0 -23 1 -13
242 -153 265 -153 8 0 20 9 26 19 12 24 -12 44 -132 112 -43 23 -78 47 -78 51
0 4 50 95 110 201 61 106 110 199 110 208 0 15 -19 39 -30 39 -4 0 -14 -8 -22
-17z"/>
    <path d="M5559 7337 c-20 -14 -41 -40 -53 -69 -25 -61 -16 -110 30 -156 32
-32 38 -34 82 -30 55 5 85 27 113 80 34 65 19 146 -33 182 -33 24 -99 20 -139
-7z m112 -48 c40 -40 2 -140 -55 -147 -39 -5 -56 14 -56 62 0 46 21 83 54 96
31 13 34 12 57 -11z"/>
    <path d="M2395 7133 c-40 -21 -84 -62 -101 -95 -22 -42 -18 -113 8 -152 56
-85 145 -87 178 -4 17 43 15 41 38 27 24 -15 52 -6 52 17 0 23 -121 224 -134
224 -6 -1 -24 -8 -41 -17z m35 -112 c12 -53 0 -126 -23 -134 -35 -12 -75 51
-62 100 6 27 51 83 66 83 4 0 12 -22 19 -49z"/>
    <path d="M4160 6990 c-9 -16 -8 -20 5 -20 8 0 15 9 15 20 0 11 -2 20 -5 20 -2
0 -9 -9 -15 -20z"/>
    <path d="M2136 6964 c-15 -14 -13 -22 24 -90 30 -53 40 -83 38 -106 -5 -56
-33 -48 -109 31 -69 72 -85 81 -107 59 -22 -22 -13 -39 54 -108 48 -50 76 -71
106 -78 116 -30 163 70 97 208 -47 99 -70 118 -103 84z"/>
    <path d="M5029 6962 c-13 -15 -12 -16 3 -4 14 11 17 10 21 -5 4 -16 5 -16 6
-1 2 25 -15 30 -30 10z"/>
    <path d="M4172 6930 c0 -19 2 -27 5 -17 2 9 2 25 0 35 -3 9 -5 1 -5 -18z"/>
    <path d="M3910 6929 c0 -5 5 -7 10 -4 6 3 10 8 10 11 0 2 -4 4 -10 4 -5 0 -10
-5 -10 -11z"/>
    <path d="M6365 6918 c-66 -17 -122 -101 -110 -164 8 -44 39 -64 97 -64 46 0
47 -1 36 -20 -11 -16 -10 -23 5 -37 25 -25 41 -12 119 98 75 106 75 112 5 156
-48 30 -108 43 -152 31z m114 -83 c18 -17 3 -33 -57 -64 -96 -49 -147 4 -65
69 23 18 36 21 68 15 22 -3 46 -12 54 -20z"/>
    <path d="M4454 6912 c4 -7 2 -19 -4 -27 -7 -9 -8 -15 -2 -15 16 0 24 32 11 44
-9 8 -10 8 -5 -2z"/>
    <path d="M5041 6904 c0 -11 3 -14 6 -6 3 7 2 16 -1 19 -3 4 -6 -2 -5 -13z"/>
    <path d="M1790 6895 c-26 -32 13 -81 48 -59 23 15 26 38 7 58 -20 20 -39 20
-55 1z"/>
    <path d="M3431 6883 c1 -23 2 -24 6 -6 3 15 9 20 20 16 11 -4 14 -2 9 5 -14
23 -36 13 -35 -15z"/>
    <path d="M3986 6883 c-6 -14 -5 -15 5 -6 7 7 10 15 7 18 -3 3 -9 -2 -12 -12z"/>
    <path d="M4780 6890 c0 -5 5 -10 11 -10 5 0 7 5 4 10 -3 6 -8 10 -11 10 -2 0
-4 -4 -4 -10z"/>
    <path d="M4836 6877 c3 -10 9 -15 12 -12 3 3 0 11 -7 18 -10 9 -11 8 -5 -6z"/>
    <path d="M3467 6859 c4 -13 8 -18 11 -10 2 7 -1 18 -6 23 -8 8 -9 4 -5 -13z"/>
    <path d="M4820 6861 c0 -6 4 -13 10 -16 6 -3 7 1 4 9 -7 18 -14 21 -14 7z"/>
    <path d="M5002 6845 c0 -16 2 -22 5 -12 2 9 2 23 0 30 -3 6 -5 -1 -5 -18z"/>
    <path d="M5031 6854 c0 -11 3 -14 6 -6 3 7 2 16 -1 19 -3 4 -6 -2 -5 -13z"/>
    <path d="M5175 6859 c-4 -6 -5 -12 -2 -15 2 -3 7 2 10 11 7 17 1 20 -8 4z"/>
    <path d="M6959 6854 c-10 -12 -10 -20 -1 -35 13 -20 15 -18 -179 -229 -70 -76
-93 -96 -115 -95 -14 0 -31 -8 -37 -17 -9 -14 -4 -24 33 -58 57 -51 85 -51 85
1 0 31 12 49 85 130 170 188 192 210 205 199 16 -13 41 -4 50 18 5 12 -7 29
-40 60 -51 46 -66 50 -86 26z"/>
    <path d="M4186 6852 c-2 -4 -1 -14 5 -22 7 -12 9 -10 9 8 0 23 -5 28 -14 14z"/>
    <path d="M4160 6838 c0 -7 3 -30 6 -50 5 -28 10 -35 23 -31 12 3 11 1 -3 -11
-11 -9 -14 -16 -7 -16 7 0 9 -5 5 -11 -3 -6 0 -15 7 -20 11 -7 11 -9 -3 -9 -9
0 -19 6 -21 13 -4 7 -6 6 -6 -5 -1 -9 6 -23 14 -31 10 -10 12 -26 8 -51 -6
-38 -11 -40 -63 -30 -23 5 -28 9 -18 16 10 7 8 8 -6 6 -37 -6 -27 -25 15 -31
30 -4 52 -16 78 -41 35 -34 37 -35 49 -16 7 11 8 20 3 20 -14 0 -5 36 19 75
23 37 35 79 19 70 -5 -4 -9 -15 -9 -26 0 -13 -4 -18 -12 -13 -6 4 -8 3 -4 -4
3 -6 0 -17 -8 -25 -8 -8 -12 -17 -9 -21 4 -3 2 -6 -4 -6 -6 0 -13 11 -15 25
-3 14 -1 23 6 22 6 -1 10 3 9 10 -2 6 4 31 13 55 9 28 11 44 4 46 -15 5 -12
22 4 22 7 0 16 11 18 25 3 14 1 25 -3 25 -5 0 -9 -9 -9 -21 0 -11 -4 -18 -9
-15 -10 7 -21 -16 -21 -44 0 -10 -6 -20 -14 -23 -11 -4 -13 4 -9 37 4 38 1 44
-18 49 -14 4 -20 11 -16 21 3 8 2 18 -3 21 -6 4 -10 0 -10 -7z m75 -138 c-3
-5 -11 -10 -16 -10 -6 0 -7 5 -4 10 3 6 11 10 16 10 6 0 7 -4 4 -10z m-28 -97
c-4 -3 -2 -12 4 -20 9 -10 8 -13 -5 -13 -10 0 -14 -5 -11 -10 4 -6 11 -7 17
-4 6 4 8 2 4 -4 -3 -5 0 -12 6 -15 7 -2 9 -8 5 -13 -5 -5 -17 1 -28 15 -13 16
-16 28 -10 34 5 5 7 16 4 23 -3 8 1 14 8 14 7 0 9 -3 6 -7z"/>
    <path d="M3448 6813 c5 -21 7 -23 10 -9 2 10 0 22 -6 28 -6 6 -7 0 -4 -19z"/>
    <path d="M3480 6825 c0 -5 5 -17 10 -25 5 -8 10 -10 10 -5 0 6 -5 17 -10 25
-5 8 -10 11 -10 5z"/>
    <path d="M4991 6798 c0 -9 -4 -25 -7 -35 -5 -17 -5 -17 6 0 6 10 9 25 7 35 -4
15 -5 15 -6 0z"/>
    <path d="M1880 6775 c-17 -20 -10 -33 70 -133 53 -67 70 -81 90 -79 47 4 37
39 -42 136 -72 91 -94 105 -118 76z"/>
    <path d="M3476 6750 c4 -25 10 -52 15 -60 10 -17 1 39 -12 80 -6 16 -7 10 -3
-20z"/>
    <path d="M3661 6776 c-6 -7 -8 -22 -4 -31 4 -12 3 -16 -5 -11 -6 3 -14 1 -18
-5 -4 -8 -3 -9 4 -5 7 4 12 1 12 -6 0 -25 20 16 20 42 0 20 2 22 10 10 8 -13
10 -12 10 3 0 20 -13 22 -29 3z"/>
    <path d="M3497 6760 c3 -11 7 -20 9 -20 2 0 4 9 4 20 0 11 -4 20 -9 20 -5 0
-7 -9 -4 -20z"/>
    <path d="M3983 6773 c4 -6 2 -13 -5 -15 -8 -3 -6 -6 4 -10 17 -7 19 15 3 29
-4 4 -5 3 -2 -4z"/>
    <path d="M4572 6771 c-8 -5 -12 -16 -10 -25 2 -12 6 -10 15 9 6 14 10 25 10
25 -1 0 -8 -4 -15 -9z"/>
    <path d="M4890 6765 c8 -11 15 -21 16 -23 1 -2 5 5 8 15 4 9 4 14 0 10 -4 -4
-14 -1 -23 6 -14 11 -15 10 -1 -8z"/>
    <path d="M5003 6749 c-7 -18 -11 -35 -8 -37 6 -6 27 48 23 60 -2 5 -9 -6 -15
-23z"/>
    <path d="M4531 6756 c-9 -10 -8 -15 2 -19 8 -3 13 3 13 14 0 23 0 23 -15 5z"/>
    <path d="M4318 6745 c0 -6 -2 -17 -2 -25 -1 -8 -7 -14 -14 -13 -6 2 -9 -4 -6
-12 5 -12 10 -9 26 11 15 19 18 28 9 37 -6 6 -12 7 -13 2z"/>
    <path d="M3336 6710 c22 -45 28 -52 19 -20 -4 14 -14 32 -22 40 -10 11 -9 5 3
-20z"/>
    <path d="M4101 6724 c0 -11 3 -14 6 -6 3 7 2 16 -1 19 -3 4 -6 -2 -5 -13z"/>
    <path d="M1648 6719 c-25 -14 -22 -29 11 -69 l29 -35 -25 -27 c-44 -47 -3 -90
44 -47 l25 24 67 -72 c67 -74 89 -85 111 -58 14 17 11 23 -64 108 l-60 68 27
25 c29 27 33 44 15 62 -17 17 -22 15 -56 -13 l-29 -24 -33 34 c-37 39 -38 39
-62 24z"/>
    <path d="M4130 6720 c9 -6 11 -10 3 -10 -7 0 -10 -7 -6 -17 6 -15 7 -14 13 3
9 22 4 34 -13 34 -7 0 -6 -4 3 -10z"/>
    <path d="M4826 6715 c-9 -26 -7 -32 5 -12 6 10 9 21 6 23 -2 3 -7 -2 -11 -11z"/>
    <path d="M5600 6715 c0 -8 2 -15 4 -15 2 0 6 7 10 15 3 8 1 15 -4 15 -6 0 -10
-7 -10 -15z"/>
    <path d="M3516 6695 c8 -37 14 -45 14 -19 0 10 -5 26 -10 34 -8 11 -9 7 -4
-15z"/>
    <path d="M4965 6709 c-4 -6 -5 -12 -2 -15 2 -3 7 2 10 11 7 17 1 20 -8 4z"/>
    <path d="M3629 6708 c-3 -16 -7 -59 -5 -57 16 18 25 49 16 54 -5 3 -10 5 -11
3z"/>
    <path d="M5031 6692 c-17 -31 -13 -40 5 -14 9 13 14 26 11 29 -3 2 -10 -4 -16
-15z"/>
    <path d="M5066 6694 c-9 -24 -2 -26 12 -4 7 11 8 20 3 20 -5 0 -12 -7 -15 -16z"/>
    <path d="M4070 6679 c0 -15 18 -19 23 -6 3 8 -1 14 -9 14 -8 0 -14 -4 -14 -8z"/>
    <path d="M3376 6671 c-3 -5 2 -15 12 -22 15 -12 16 -12 5 2 -7 9 -10 19 -6 22
3 4 4 7 0 7 -3 0 -8 -4 -11 -9z"/>
    <path d="M4970 6660 c-6 -12 -9 -24 -7 -27 3 -2 11 5 17 17 6 12 9 24 7 27 -3
2 -11 -5 -17 -17z"/>
    <path d="M4124 6642 c3 -19 7 -36 10 -40 9 -9 6 31 -5 53 -7 16 -8 13 -5 -13z"/>
    <path d="M4850 6661 c0 -10 39 -46 43 -40 2 2 -7 14 -20 26 -13 12 -23 19 -23
14z"/>
    <path d="M5310 6655 c-11 -13 -10 -14 4 -9 9 3 16 10 16 15 0 13 -6 11 -20 -6z"/>
    <path d="M5835 6660 c-3 -6 1 -7 10 -4 15 6 15 4 0 -32 -13 -32 -13 -36 -1
-24 23 24 32 70 13 70 -9 0 -19 -4 -22 -10z"/>
    <path d="M3069 6641 c9 -6 10 -10 2 -14 -8 -4 -8 -5 1 -3 20 4 21 26 1 26 -14
0 -15 -2 -4 -9z"/>
    <path d="M3505 6639 c-4 -6 -5 -12 -2 -15 2 -3 7 2 10 11 7 17 1 20 -8 4z"/>
    <path d="M3532 6640 c0 -8 4 -26 8 -40 6 -20 8 -21 8 -5 0 11 -3 29 -8 40 -5
12 -8 14 -8 5z"/>
    <path d="M3096 6625 c-3 -9 0 -15 8 -15 7 0 13 7 13 15 0 8 -4 15 -8 15 -4 0
-9 -7 -13 -15z"/>
    <path d="M3410 6631 c0 -5 9 -13 20 -16 11 -3 20 -11 20 -16 0 -6 17 -18 38
-27 40 -18 44 -35 13 -52 -13 -7 -18 -5 -18 6 0 9 6 13 14 10 8 -3 11 -1 8 4
-3 6 -17 10 -31 10 -21 0 -28 -8 -26 -30 0 -3 -10 -5 -23 -5 -13 0 -21 3 -18
8 2 4 -1 7 -6 7 -6 0 -11 -4 -11 -9 0 -5 -10 -12 -22 -14 -13 -2 0 -5 27 -6
29 0 57 4 64 12 11 10 13 10 7 0 -4 -7 -2 -13 4 -13 7 0 8 -6 0 -19 -12 -23
-13 -42 -1 -23 6 11 10 11 19 0 8 -10 4 -13 -19 -15 -17 -1 -27 2 -24 7 4 6 1
10 -4 10 -6 0 -11 -9 -11 -19 0 -17 6 -18 43 -14 23 3 59 9 80 13 43 9 42 9
21 -36 -9 -19 -14 -38 -10 -41 3 -3 6 1 6 10 0 10 6 17 13 17 8 0 14 8 14 18
-1 55 4 72 20 72 23 0 14 6 -22 14 -24 6 -28 5 -17 -5 6 -7 12 -17 12 -23 0
-5 -3 -6 -7 -3 -3 4 -13 1 -21 -6 -11 -8 -14 -8 -9 0 4 6 3 15 -3 18 -6 4 7
25 31 50 23 24 39 46 38 49 -2 3 5 12 16 21 20 16 20 16 -1 6 -12 -6 -24 -8
-27 -4 -4 3 -5 -4 -2 -15 2 -14 -3 -23 -16 -27 -11 -4 -17 -10 -14 -15 9 -15
-23 -19 -35 -4 -9 10 -9 14 -1 14 6 0 11 -5 11 -12 0 -6 3 -8 7 -5 10 11 -27
46 -43 40 -8 -3 -14 0 -14 6 0 6 -6 11 -14 11 -9 0 -12 7 -9 19 3 12 -2 21
-14 25 -14 6 -16 5 -5 -5 23 -25 12 -30 -18 -9 -16 12 -30 17 -30 11z m120
-124 c-9 -7 -14 -20 -12 -30 3 -16 1 -17 -17 -8 -25 14 -18 38 12 44 12 2 24
5 27 5 3 1 -2 -4 -10 -11z m5 -57 c-3 -5 -12 -10 -18 -10 -7 0 -6 4 3 10 19
12 23 12 15 0z"/>
    <path d="M3581 6609 c-12 -34 -7 -56 6 -23 3 10 10 21 14 24 4 3 4 11 0 19 -6
9 -12 3 -20 -20z"/>
    <path d="M5802 6604 c-12 -18 -22 -37 -22 -41 0 -5 -12 -30 -26 -57 -14 -26
-23 -50 -20 -54 3 -3 11 9 17 27 7 19 17 30 24 27 13 -5 55 45 55 66 0 7 -11
-5 -25 -27 -34 -55 -34 -15 0 44 31 53 29 63 -3 15z"/>
    <path d="M4900 6610 c-13 -8 -12 -10 3 -10 21 0 23 -35 2 -44 -17 -6 -20 -26
-4 -26 5 0 8 4 5 9 -3 5 1 11 9 15 8 3 15 15 15 26 0 12 5 18 10 15 13 -8 32
4 25 16 -4 5 -13 5 -25 -1 -12 -6 -20 -6 -22 0 -2 6 -8 6 -18 0z"/>
    <path d="M5525 6610 c-3 -6 1 -7 9 -4 18 7 21 14 7 14 -6 0 -13 -4 -16 -10z"/>
    <path d="M3227 6597 c-3 -8 4 -13 22 -14 17 0 19 1 7 4 -15 4 -16 7 -5 14 11
7 11 9 -2 9 -9 0 -19 -6 -22 -13z"/>
    <path d="M3168 6593 c6 -2 18 -2 25 0 6 3 1 5 -13 5 -14 0 -19 -2 -12 -5z"/>
    <path d="M3287 6594 c-13 -13 -7 -22 18 -26 14 -3 28 -1 32 5 3 6 1 7 -5 3 -7
-4 -12 -2 -12 4 0 6 -4 9 -9 6 -5 -4 -11 -1 -13 5 -2 5 -7 7 -11 3z"/>
    <path d="M3790 6590 c-9 -6 -10 -10 -3 -10 6 0 15 5 18 10 8 12 4 12 -15 0z"/>
    <path d="M5664 6573 c2 -13 0 -23 -5 -23 -4 0 -6 -7 -3 -15 7 -17 34 -21 34
-4 0 5 -5 7 -12 3 -7 -5 -9 -2 -6 7 3 8 1 23 -4 34 -8 18 -8 18 -4 -2z"/>
    <path d="M3351 6563 c0 -10 3 -13 5 -6 4 9 11 9 32 0 15 -6 30 -16 33 -20 4
-5 10 -4 13 2 4 6 -1 14 -11 17 -10 3 -28 10 -41 15 -31 12 -32 12 -31 -8z"/>
    <path d="M4868 6573 c7 -3 16 -2 19 1 4 3 -2 6 -13 5 -11 0 -14 -3 -6 -6z"/>
    <path d="M4985 6556 c-11 -13 -23 -22 -27 -20 -4 3 -9 1 -12 -4 -3 -5 1 -9 9
-9 16 0 61 44 54 51 -2 3 -13 -6 -24 -18z"/>
    <path d="M5073 6573 c9 -2 23 -2 30 0 6 3 -1 5 -18 5 -16 0 -22 -2 -12 -5z"/>
    <path d="M5366 6562 c-3 -5 1 -9 9 -9 8 0 12 4 9 9 -3 4 -7 8 -9 8 -2 0 -6 -4
-9 -8z"/>
    <path d="M2630 6536 c0 -14 4 -27 9 -30 5 -4 7 3 4 15 -4 12 0 25 8 30 11 7
10 9 -3 9 -12 0 -18 -8 -18 -24z"/>
    <path d="M5190 6550 c12 -8 12 -10 1 -10 -8 0 -12 -2 -9 -5 3 -3 13 -2 22 1
14 5 15 9 4 15 -7 5 -17 9 -23 9 -5 0 -3 -5 5 -10z"/>
    <path d="M5551 6534 c0 -11 3 -14 6 -6 3 7 2 16 -1 19 -3 4 -6 -2 -5 -13z"/>
    <path d="M2667 6523 c3 -13 9 -20 14 -17 5 3 9 -2 9 -10 0 -8 5 -18 10 -21 19
-12 10 14 -14 42 -23 26 -25 26 -19 6z"/>
    <path d="M2911 6524 c0 -11 3 -14 6 -6 3 7 2 16 -1 19 -3 4 -6 -2 -5 -13z"/>
    <path d="M4861 6524 c0 -11 3 -14 6 -6 3 7 2 16 -1 19 -3 4 -6 -2 -5 -13z"/>
    <path d="M3300 6520 c-18 -12 -2 -12 25 0 13 6 15 9 5 9 -8 0 -22 -4 -30 -9z"/>
    <path d="M4905 6514 c-9 -9 -13 -20 -8 -23 9 -7 10 -31 2 -46 -3 -5 0 -21 7
-35 13 -25 14 -25 14 -2 0 12 -5 22 -11 22 -5 0 -7 5 -4 10 4 6 11 7 17 4 7
-4 8 -2 4 4 -4 7 -1 12 6 13 7 0 4 4 -7 9 -13 6 -15 9 -5 9 13 1 13 2 0 11
-13 9 -13 11 0 19 8 6 12 13 8 16 -3 3 -13 -2 -23 -11z"/>
    <path d="M5094 6513 c10 -11 37 -12 30 -2 -3 5 -12 9 -21 9 -9 0 -13 -3 -9 -7z"/>
    <path d="M5580 6510 c0 -5 5 -10 11 -10 5 0 7 5 4 10 -3 6 -8 10 -11 10 -2 0
-4 -4 -4 -10z"/>
    <path d="M1540 6469 c-50 -59 -59 -78 -60 -128 0 -102 106 -191 181 -151 24
13 49 61 49 95 0 23 2 24 21 15 24 -13 49 2 49 29 0 19 -172 181 -192 181 -7
0 -29 -19 -48 -41z m78 -84 c24 -50 30 -131 10 -138 -39 -13 -96 61 -82 106
10 35 34 77 42 77 5 0 18 -20 30 -45z"/>
    <path d="M5046 6499 c2 -4 -2 -10 -8 -12 -8 -4 -7 -6 3 -6 9 -1 19 5 22 12 3
8 -1 14 -9 14 -7 0 -11 -4 -8 -8z"/>
    <path d="M5671 6493 c-1 -12 4 -25 9 -28 6 -4 8 -11 5 -16 -10 -15 1 -10 15 7
11 12 11 15 0 12 -7 -2 -17 8 -21 22 -6 23 -7 23 -8 3z"/>
    <path d="M6872 6422 c-132 -124 -125 -154 26 -103 154 53 173 40 72 -50 -112
-101 -93 -129 55 -80 149 49 160 40 59 -52 -68 -62 -81 -99 -39 -105 25 -3
157 115 174 156 25 61 -24 110 -97 96 -32 -6 -34 -5 -27 12 17 41 16 70 -3 94
-17 21 -29 25 -71 24 l-51 0 20 21 c11 12 20 28 20 36 0 17 -19 39 -34 39 -6
0 -53 -40 -104 -88z"/>
    <path d="M5506 6483 c-6 -14 -5 -15 5 -6 7 7 10 15 7 18 -3 3 -9 -2 -12 -12z"/>
    <path d="M2660 6484 c0 -12 46 -90 58 -97 6 -4 12 -13 12 -18 0 -6 9 -22 20
-36 11 -14 20 -21 20 -15 0 6 -5 14 -11 17 -6 4 -8 14 -4 23 3 9 3 13 -1 10
-8 -9 -35 24 -63 80 -19 38 -31 52 -31 36z"/>
    <path d="M5000 6480 c0 -5 5 -10 10 -10 6 0 10 5 10 10 0 6 -4 10 -10 10 -5 0
-10 -4 -10 -10z"/>
    <path d="M5770 6484 c0 -5 -9 -24 -20 -42 -17 -28 -23 -31 -40 -22 -18 10 -20
8 -20 -19 0 -33 -18 -51 -31 -30 -4 7 -11 10 -14 7 -4 -4 -3 -12 1 -19 12 -21
11 -57 -2 -52 -7 2 -10 14 -8 26 4 20 4 20 -6 -2 -10 -23 -11 -23 -31 -5 -15
14 -20 15 -17 4 5 -26 -26 -16 -33 10 -4 14 -7 21 -8 15 -1 -5 -10 5 -21 23
-11 17 -22 32 -25 32 -3 0 10 -24 28 -52 19 -30 41 -52 50 -52 9 1 13 -4 10
-12 -6 -18 16 -46 29 -38 6 4 5 -3 -2 -16 -6 -12 -9 -28 -6 -36 3 -9 1 -12 -4
-9 -5 3 -18 1 -27 -4 -16 -9 -16 -10 4 -11 16 0 20 -5 17 -22 -2 -13 -1 -16 2
-8 4 8 15 27 25 42 22 31 26 51 4 22 -13 -17 -14 -17 -15 -2 0 9 7 21 16 26
11 6 15 17 11 31 -7 27 1 27 30 0 l22 -22 -4 22 c-3 17 2 23 26 28 20 4 29 11
29 25 0 15 5 18 20 13 15 -5 18 -3 14 9 -3 8 -12 12 -19 10 -23 -9 -21 39 4
84 13 24 21 46 17 49 -3 4 -6 2 -6 -3z m-49 -95 c8 -17 8 -20 -2 -17 -7 2 -13
12 -15 21 -3 23 3 21 17 -4z m-5 -31 c15 -23 11 -47 -9 -52 -13 -3 -17 0 -13
10 3 8 0 14 -7 15 -7 0 -3 4 8 9 18 8 18 9 2 9 -10 1 -15 6 -12 11 8 14 22 13
31 -2z"/>
    <path d="M2903 6440 c0 -25 2 -35 4 -22 2 12 2 32 0 45 -2 12 -4 2 -4 -23z"/>
    <path d="M4958 6473 c6 -2 18 -2 25 0 6 3 1 5 -13 5 -14 0 -19 -2 -12 -5z"/>
    <path d="M5610 6454 c14 -35 12 -42 -5 -20 -8 11 -15 16 -15 10 0 -5 7 -18 15
-28 11 -14 15 -16 15 -5 1 10 5 8 16 -6 17 -21 17 -20 -9 38 -19 42 -32 51
-17 11z"/>
    <path d="M4232 6445 c0 -16 2 -22 5 -12 2 9 2 23 0 30 -3 6 -5 -1 -5 -18z"/>
    <path d="M2710 6453 c0 -6 7 -16 15 -23 8 -7 13 -15 12 -19 -2 -3 7 -16 20
-28 33 -32 28 -13 -8 33 -39 49 -39 49 -39 37z"/>
    <path d="M4201 6444 c0 -11 3 -14 6 -6 3 7 2 16 -1 19 -3 4 -6 -2 -5 -13z"/>
    <path d="M2500 6430 c-9 -6 -10 -10 -3 -10 6 0 15 5 18 10 8 12 4 12 -15 0z"/>
    <path d="M3365 6430 c-3 -5 -1 -10 4 -10 6 0 11 5 11 10 0 6 -2 10 -4 10 -3 0
-8 -4 -11 -10z"/>
    <path d="M3556 6421 c-4 -7 -5 -15 -2 -18 9 -9 19 4 14 18 -4 11 -6 11 -12 0z"/>
    <path d="M5890 6421 c0 -6 -6 -9 -12 -7 -7 1 -10 1 -5 -1 4 -3 4 -9 1 -14 -3
-6 -11 -5 -20 2 -8 6 -17 9 -21 5 -3 -3 -1 -6 5 -6 24 0 11 -15 -14 -17 -32
-1 -51 -18 -33 -28 8 -6 10 -4 4 5 -6 10 -4 12 9 7 17 -7 106 31 106 44 0 4
-4 11 -10 14 -5 3 -10 2 -10 -4z"/>
    <path d="M4206 6405 c-3 -9 0 -12 9 -9 7 3 15 -2 18 -13 4 -15 5 -15 6 3 1 25
-25 40 -33 19z"/>
    <path d="M5970 6399 c0 -5 5 -7 10 -4 6 3 10 -4 10 -17 0 -14 7 -33 15 -44 13
-17 13 -16 3 16 -6 19 -12 41 -14 48 -4 15 -24 16 -24 1z"/>
    <path d="M3294 6374 c-18 -14 -18 -14 6 -3 31 14 36 19 24 19 -6 0 -19 -7 -30
-16z"/>
    <path d="M2615 6369 c-4 -6 -5 -12 -2 -15 2 -3 7 2 10 11 7 17 1 20 -8 4z"/>
    <path d="M3596 6367 c3 -10 9 -15 12 -12 3 3 0 11 -7 18 -10 9 -11 8 -5 -6z"/>
    <path d="M6114 6365 c-4 -8 -18 -16 -33 -16 -20 -1 -22 -2 -6 -6 11 -3 26 -12
34 -21 12 -15 12 -15 7 4 -4 14 -1 28 9 38 9 9 11 16 5 16 -6 0 -13 -7 -16
-15z"/>
    <path d="M3205 6350 c3 -5 11 -10 16 -10 6 0 7 5 4 10 -3 6 -11 10 -16 10 -6
0 -7 -4 -4 -10z"/>
    <path d="M5967 6340 c3 -11 9 -20 15 -20 5 0 4 9 -2 20 -6 11 -12 20 -14 20
-2 0 -2 -9 1 -20z"/>
    <path d="M6132 6336 c1 -13 6 -22 10 -20 11 7 10 32 -2 39 -6 3 -9 -4 -8 -19z"/>
    <path d="M2362 6320 c0 -19 2 -27 5 -17 2 9 2 25 0 35 -3 9 -5 1 -5 -18z"/>
    <path d="M2780 6341 c0 -6 5 -13 10 -16 6 -4 20 -24 31 -47 11 -22 23 -37 26
-34 5 5 -55 106 -63 106 -2 0 -4 -4 -4 -9z"/>
    <path d="M5856 6335 c4 -8 13 -15 21 -15 12 0 12 2 -1 15 -8 8 -17 15 -20 15
-3 0 -3 -7 0 -15z"/>
    <path d="M6300 6329 l-25 -20 33 16 c35 17 44 8 12 -13 -11 -7 -20 -16 -20
-22 0 -5 11 1 25 14 45 42 23 64 -25 25z"/>
    <path d="M3611 6324 c0 -11 3 -14 6 -6 3 7 2 16 -1 19 -3 4 -6 -2 -5 -13z"/>
    <path d="M2697 6319 c7 -9 10 -19 6 -23 -4 -4 1 -4 10 0 10 3 17 7 15 8 -2 1
-12 8 -23 16 -18 14 -19 13 -8 -1z"/>
    <path d="M6058 6323 c6 -2 18 -2 25 0 6 3 1 5 -13 5 -14 0 -19 -2 -12 -5z"/>
    <path d="M2950 6288 c-11 -18 -20 -37 -19 -43 0 -5 3 -4 6 3 2 6 9 10 13 7 5
-3 12 0 16 6 4 8 3 9 -4 5 -17 -10 -15 6 4 32 8 12 13 22 9 22 -3 0 -14 -15
-25 -32z"/>
    <path d="M4243 6285 c0 -22 2 -30 4 -17 2 12 2 30 0 40 -3 9 -5 -1 -4 -23z"/>
    <path d="M2868 6292 c-4 -12 -2 -20 3 -16 5 3 9 -5 10 -18 1 -18 3 -16 10 11
6 18 8 36 5 39 -3 3 -6 -3 -7 -14 0 -18 -1 -18 -8 0 -7 19 -8 19 -13 -2z"/>
    <path d="M2736 6283 c-6 -14 -5 -15 5 -6 7 7 10 15 7 18 -3 3 -9 -2 -12 -12z"/>
    <path d="M6021 6284 c0 -11 3 -14 6 -6 3 7 2 16 -1 19 -3 4 -6 -2 -5 -13z"/>
    <path d="M6122 6280 c0 -14 2 -19 5 -12 2 6 2 18 0 25 -3 6 -5 1 -5 -13z"/>
    <path d="M2405 6280 c-3 -5 -1 -10 4 -10 6 0 11 5 11 10 0 6 -2 10 -4 10 -3 0
-8 -4 -11 -10z"/>
    <path d="M5703 6265 c0 -8 7 -16 16 -16 56 -5 71 -4 71 4 0 5 -12 6 -26 3 -18
-5 -24 -3 -18 5 4 8 3 9 -4 5 -7 -4 -12 -2 -12 3 0 6 -6 11 -13 11 -8 0 -14
-7 -14 -15z"/>
    <path d="M6239 6253 c-13 -16 -12 -17 4 -4 9 7 17 15 17 17 0 8 -8 3 -21 -13z"/>
    <path d="M5662 6244 c10 -10 20 -16 22 -13 3 3 -5 11 -17 18 -21 13 -21 12 -5
-5z"/>
    <path d="M1332 6240 c-26 -11 -45 -54 -36 -84 18 -65 19 -61 -11 -38 -15 12
-31 22 -36 22 -10 0 -39 -29 -39 -40 0 -15 201 -171 217 -168 36 7 37 33 4 82
-40 58 -70 124 -71 154 0 22 4 23 41 20 31 -2 44 1 53 14 8 13 7 21 -1 29 -15
15 -92 21 -121 9z"/>
    <path d="M2663 6243 c9 -2 23 -2 30 0 6 3 -1 5 -18 5 -16 0 -22 -2 -12 -5z"/>
    <path d="M5840 6240 c-12 -7 -11 -10 5 -16 11 -4 24 -12 28 -18 6 -7 7 -4 3 7
-3 9 -1 17 4 17 6 0 10 -5 10 -11 0 -5 5 -7 12 -3 7 5 5 11 -7 21 -22 15 -34
16 -55 3z"/>
    <path d="M6092 6230 c0 -14 2 -19 5 -12 2 6 2 18 0 25 -3 6 -5 1 -5 -13z"/>
    <path d="M2100 6236 c0 -2 8 -10 18 -17 15 -13 16 -12 3 4 -13 16 -21 21 -21
13z"/>
    <path d="M2362 6220 c0 -14 2 -19 5 -12 2 6 2 18 0 25 -3 6 -5 1 -5 -13z"/>
    <path d="M2535 6230 c-3 -6 1 -7 9 -4 18 7 21 14 7 14 -6 0 -13 -4 -16 -10z"/>
    <path d="M2730 6230 c-13 -8 -12 -10 3 -10 9 0 17 5 17 10 0 12 -1 12 -20 0z"/>
    <path d="M2678 6223 c6 -2 18 -2 25 0 6 3 1 5 -13 5 -14 0 -19 -2 -12 -5z"/>
    <path d="M2865 6210 c2 -31 15 -37 15 -7 0 15 -4 27 -8 27 -5 0 -8 -9 -7 -20z"/>
    <path d="M6010 6218 c0 -10 3 -18 8 -19 4 0 14 -2 23 -4 11 -2 16 3 15 13 -3
20 -26 29 -26 10 0 -10 -3 -9 -10 2 -8 13 -10 12 -10 -2z"/>
    <path d="M6207 6213 c-11 -10 -8 -25 3 -18 6 3 10 2 10 -4 0 -5 -4 -13 -10
-16 -5 -3 -15 -16 -21 -28 -6 -12 5 -4 24 18 20 22 36 45 36 50 1 6 -4 3 -9
-5 -8 -12 -12 -12 -18 -2 -5 7 -11 9 -15 5z"/>
    <path d="M2824 6198 c3 -7 9 -21 12 -30 4 -10 10 -18 15 -18 5 0 3 14 -6 30
-15 28 -33 44 -21 18z"/>
    <path d="M2895 6201 c-3 -5 -2 -12 3 -15 5 -3 9 1 9 9 0 17 -3 19 -12 6z"/>
    <path d="M2138 6190 c17 -20 15 -35 -3 -20 -10 8 -15 9 -15 2 0 -14 40 -52 54
-52 5 0 1 6 -10 14 -10 8 -15 18 -11 22 4 5 12 2 17 -6 5 -8 11 -12 14 -9 3 3
-9 19 -27 35 -17 16 -26 22 -19 14z"/>
    <path d="M2782 6183 c8 -10 6 -13 -8 -14 -11 0 -14 -3 -6 -6 13 -5 42 14 42
28 0 4 -9 7 -19 6 -15 -1 -17 -4 -9 -14z"/>
    <path d="M2930 6182 c-14 -9 -27 -20 -28 -25 -2 -4 -8 -5 -13 -1 -14 8 -10 -6
6 -22 11 -11 15 -12 15 -3 0 7 12 26 27 41 30 32 29 34 -7 10z"/>
    <path d="M5799 6192 c9 -7 10 -11 2 -15 -7 -4 -8 -5 0 -4 15 3 13 21 -3 25
-10 3 -10 2 1 -6z"/>
    <path d="M5915 6190 c-3 -5 -1 -10 4 -10 6 0 11 5 11 10 0 6 -2 10 -4 10 -3 0
-8 -4 -11 -10z"/>
    <path d="M6080 6190 c0 -5 5 -10 10 -10 6 0 10 5 10 10 0 6 -4 10 -10 10 -5 0
-10 -4 -10 -10z"/>
    <path d="M6398 6172 c-21 -14 -38 -31 -38 -38 0 -6 17 4 37 22 21 19 43 32 50
30 7 -3 13 -1 13 4 0 16 -23 10 -62 -18z"/>
    <path d="M2725 6180 c-3 -5 -1 -10 4 -10 6 0 11 5 11 10 0 6 -2 10 -4 10 -3 0
-8 -4 -11 -10z"/>
    <path d="M6166 6166 c-23 -36 -20 -44 5 -12 12 15 19 29 16 32 -2 2 -12 -7
-21 -20z"/>
    <path d="M2459 6153 c-13 -16 -12 -17 4 -4 9 7 17 15 17 17 0 8 -8 3 -21 -13z"/>
    <path d="M2490 6155 c-7 -9 -8 -15 -2 -15 5 0 12 7 16 15 3 8 4 15 2 15 -2 0
-9 -7 -16 -15z"/>
    <path d="M5560 6154 c0 -8 5 -12 10 -9 6 3 10 10 10 16 0 5 -4 9 -10 9 -5 0
-10 -7 -10 -16z"/>
    <path d="M6103 6155 c0 -8 4 -12 9 -9 5 3 6 10 3 15 -9 13 -12 11 -12 -6z"/>
    <path d="M6440 6160 c-9 -6 -10 -10 -3 -10 6 0 15 5 18 10 8 12 4 12 -15 0z"/>
    <path d="M2553 6153 c9 -2 15 -8 12 -13 -3 -4 5 -6 17 -2 21 5 21 6 2 13 -10
4 -26 7 -34 7 -10 0 -9 -2 3 -5z"/>
    <path d="M2630 6150 c0 -6 7 -10 15 -10 8 0 15 2 15 4 0 2 -7 6 -15 10 -8 3
-15 1 -15 -4z"/>
    <path d="M5875 6150 c-3 -6 1 -7 9 -4 18 7 21 14 7 14 -6 0 -13 -4 -16 -10z"/>
    <path d="M2820 6138 c0 -12 33 -48 44 -48 5 0 17 -7 27 -16 19 -17 39 -12 39
11 0 8 -5 17 -11 21 -8 4 -9 0 -4 -15 8 -27 -9 -28 -28 -1 -8 11 -17 17 -20
14 -4 -4 -15 4 -26 17 -11 13 -20 21 -21 17z"/>
    <path d="M6040 6132 c0 -4 9 -8 19 -8 11 0 17 4 15 8 -3 4 -12 8 -20 8 -8 0
-14 -4 -14 -8z"/>
    <path d="M6398 6133 c7 -3 16 -2 19 1 4 3 -2 6 -13 5 -11 0 -14 -3 -6 -6z"/>
    <path d="M6290 6115 c-23 -13 -21 -16 12 -19 6 -1 12 7 14 17 1 9 2 17 1 17
-1 -1 -13 -7 -27 -15z"/>
    <path d="M6530 6126 c0 -2 9 -6 20 -9 11 -3 18 -1 14 4 -5 9 -34 13 -34 5z"/>
    <path d="M6152 6104 c-12 -8 -26 -13 -31 -10 -5 3 -8 -6 -8 -19 0 -28 19 -42
57 -41 17 1 26 7 28 21 3 18 2 19 -11 3 -9 -11 -21 -15 -35 -11 -28 7 -28 15
4 47 30 30 29 33 -4 10z"/>
    <path d="M7080 5970 c-206 -150 -233 -177 -192 -199 15 -8 37 3 122 65 l103
75 36 -35 c61 -59 122 -71 191 -36 82 42 104 119 49 171 -17 16 -42 29 -55 29
-27 0 -29 3 -12 29 14 23 4 51 -19 51 -10 0 -110 -68 -223 -150z m270 -6 c33
-32 -47 -89 -102 -73 -31 8 -78 45 -78 60 0 5 21 15 48 23 52 16 109 12 132
-10z"/>
    <path d="M2215 6090 c10 -11 20 -20 23 -20 3 0 -3 9 -13 20 -10 11 -20 20 -23
20 -3 0 3 -9 13 -20z"/>
    <path d="M6017 6094 c3 -9 13 -14 24 -11 10 3 20 -1 22 -9 3 -8 4 -7 3 3 -1
11 -9 17 -19 15 -9 -2 -17 2 -17 8 0 5 -4 10 -10 10 -5 0 -7 -7 -3 -16z"/>
    <path d="M2354 6086 c-17 -18 -23 -86 -8 -86 16 0 24 46 10 61 -8 9 -8 10 2 5
8 -5 12 0 12 13 0 24 -1 25 -16 7z"/>
    <path d="M6224 6078 l-19 -23 23 19 c21 18 27 26 19 26 -2 0 -12 -10 -23 -22z"/>
    <path d="M2203 6065 c15 -14 27 -32 27 -40 0 -8 5 -15 10 -15 6 0 11 -10 11
-22 1 -18 2 -19 6 -5 3 10 -1 25 -8 33 -8 10 -9 18 -2 25 6 6 14 1 23 -16 7
-14 17 -25 22 -25 5 0 -1 14 -14 30 -22 30 -38 39 -38 19 0 -5 -11 1 -24 15
-13 15 -27 26 -32 26 -5 0 4 -11 19 -25z"/>
    <path d="M6255 6080 c-3 -5 -2 -10 4 -10 5 0 13 5 16 10 3 6 2 10 -4 10 -5 0
-13 -4 -16 -10z"/>
    <path d="M2655 6070 c-16 -7 -17 -9 -3 -9 9 -1 20 4 23 9 7 11 7 11 -20 0z"/>
    <path d="M5500 6065 c-9 -11 -8 -19 4 -37 9 -12 16 -18 16 -12 0 5 -5 15 -12
22 -8 8 -8 15 2 27 7 8 10 15 7 15 -2 0 -10 -7 -17 -15z"/>
    <path d="M6400 6069 c0 -5 5 -7 10 -4 6 3 10 8 10 11 0 2 -4 4 -10 4 -5 0 -10
-5 -10 -11z"/>
    <path d="M2410 6063 c0 -4 5 -15 10 -23 8 -13 10 -13 10 2 0 9 -4 20 -10 23
-5 3 -10 3 -10 -2z"/>
    <path d="M6079 6054 c-11 -14 -11 -18 4 -29 9 -6 15 -15 12 -18 -3 -4 -2 -5 2
-2 10 8 11 45 1 45 -5 0 -6 5 -3 10 10 16 -1 12 -16 -6z"/>
    <path d="M6024 6037 c-3 -8 -1 -24 5 -36 15 -26 14 -31 -3 -25 -15 6 -40 -29
-29 -40 3 -3 0 -14 -8 -24 -8 -10 2 -1 22 19 29 31 36 45 34 74 -3 41 -12 55
-21 32z m0 -82 c-4 -8 -10 -15 -15 -15 -4 0 -6 7 -3 15 4 8 10 15 15 15 4 0 6
-7 3 -15z"/>
    <path d="M6255 6040 c-3 -5 -1 -10 4 -10 6 0 11 5 11 10 0 6 -2 10 -4 10 -3 0
-8 -4 -11 -10z"/>
    <path d="M1980 6018 c0 -12 7 -18 23 -17 15 0 17 2 7 6 -8 3 -18 11 -22 17 -5
7 -8 4 -8 -6z"/>
    <path d="M2094 6016 c11 -9 27 -16 35 -15 14 0 14 1 1 6 -8 3 -24 10 -35 15
-20 9 -20 9 -1 -6z"/>
    <path d="M2380 6025 c-1 -5 -3 -18 -5 -28 -3 -18 -3 -18 16 -1 20 18 26 29 10
20 -5 -4 -12 0 -14 6 -3 7 -6 9 -7 3z"/>
    <path d="M5733 6011 c0 -11 5 -18 9 -15 4 3 5 11 1 19 -7 21 -12 19 -10 -4z"/>
    <path d="M6173 6023 c-18 -2 -33 -9 -33 -14 0 -6 -4 -8 -9 -5 -5 3 -11 -1 -15
-9 -7 -19 -1 -19 28 0 18 12 30 13 50 5 34 -12 36 -12 36 0 0 6 -6 9 -12 8 -7
-2 -12 3 -10 10 1 6 1 11 0 10 -2 0 -18 -3 -35 -5z"/>
    <path d="M2415 5988 c-17 -18 -21 -26 -11 -18 18 14 19 13 12 -5 -6 -16 -1
-14 23 9 17 17 31 35 31 40 0 6 -4 5 -9 -3 -6 -9 -10 -10 -12 -2 -3 7 -17 -2
-34 -21z m30 2 c-3 -5 -11 -10 -16 -10 -6 0 -7 5 -4 10 3 6 11 10 16 10 6 0 7
-4 4 -10z"/>
    <path d="M5765 6010 c4 -6 11 -8 16 -5 19 12 8 -14 -16 -36 -13 -13 -24 -33
-24 -44 0 -18 1 -18 9 3 5 12 13 22 18 22 9 0 32 43 32 60 0 6 -9 10 -21 10
-11 0 -17 -5 -14 -10z"/>
    <path d="M6066 6007 c3 -10 9 -15 12 -12 3 3 0 11 -7 18 -10 9 -11 8 -5 -6z"/>
    <path d="M5491 5994 c0 -11 3 -14 6 -6 3 7 2 16 -1 19 -3 4 -6 -2 -5 -13z"/>
    <path d="M5621 5994 c0 -11 3 -14 6 -6 3 7 2 16 -1 19 -3 4 -6 -2 -5 -13z"/>
    <path d="M1132 5984 c-73 -51 -65 -179 15 -238 36 -26 102 -32 141 -12 62 32
108 132 78 171 -20 27 -46 11 -60 -38 -11 -36 -53 -93 -62 -84 -3 3 1 18 9 34
25 48 29 88 13 126 -23 56 -86 75 -134 41z m68 -59 c14 -17 7 -72 -14 -101
-14 -18 -15 -17 -30 18 -15 36 -13 59 7 86 12 16 22 15 37 -3z"/>
    <path d="M5672 5975 c0 -16 2 -22 5 -12 2 9 2 23 0 30 -3 6 -5 -1 -5 -18z"/>
    <path d="M2296 5973 c-3 -7 -3 -20 0 -28 7 -18 44 -20 44 -3 0 6 7 3 16 -8 15
-18 15 -18 5 3 -6 12 -16 24 -23 27 -7 4 -3 4 10 2 12 -2 20 -1 17 4 -9 14
-64 17 -69 3z m28 -19 c3 -8 2 -12 -4 -9 -6 3 -10 10 -10 16 0 14 7 11 14 -7z"/>
    <path d="M6530 5982 c0 -5 7 -9 15 -9 8 0 15 4 15 9 0 4 -7 8 -15 8 -8 0 -15
-4 -15 -8z"/>
    <path d="M5720 5962 c0 -9 -8 -24 -17 -34 -16 -18 -16 -18 0 -12 10 3 24 19
32 34 12 23 12 27 -1 27 -8 0 -14 -7 -14 -15z"/>
    <path d="M6395 5959 c-4 -6 -5 -12 -2 -15 2 -3 7 2 10 11 7 17 1 20 -8 4z"/>
    <path d="M6475 5960 c3 -5 8 -10 11 -10 2 0 4 5 4 10 0 6 -5 10 -11 10 -5 0
-7 -4 -4 -10z"/>
    <path d="M6095 5949 c-11 -16 -1 -19 13 -3 7 8 8 14 3 14 -5 0 -13 -5 -16 -11z"/>
    <path d="M6521 5944 c0 -11 3 -14 6 -6 3 7 2 16 -1 19 -3 4 -6 -2 -5 -13z"/>
    <path d="M6541 5944 c0 -11 3 -14 6 -6 3 7 2 16 -1 19 -3 4 -6 -2 -5 -13z"/>
    <path d="M2375 5940 c3 -5 11 -10 16 -10 6 0 7 5 4 10 -3 6 -11 10 -16 10 -6
0 -7 -4 -4 -10z"/>
    <path d="M2443 5938 c-5 -7 -15 -26 -23 -43 -8 -16 -19 -33 -25 -37 -6 -4 -2
-8 8 -8 11 0 15 -4 11 -12 -4 -6 -3 -8 3 -5 6 4 8 18 5 32 -2 15 0 25 7 25 6
0 11 8 11 18 0 10 5 23 12 30 7 7 9 12 6 12 -3 0 -10 -6 -15 -12z"/>
    <path d="M6115 5931 c-3 -5 -2 -12 3 -15 5 -3 9 1 9 9 0 17 -3 19 -12 6z"/>
    <path d="M2200 5920 c-8 -5 -10 -10 -5 -10 6 0 17 5 25 10 8 5 11 10 5 10 -5
0 -17 -5 -25 -10z"/>
    <path d="M2245 5920 c-3 -5 1 -10 10 -10 9 0 13 5 10 10 -3 6 -8 10 -10 10 -2
0 -7 -4 -10 -10z"/>
    <path d="M6150 5910 c-9 -6 -10 -10 -3 -10 6 0 15 5 18 10 8 12 4 12 -15 0z"/>
    <path d="M6534 5912 c-9 -5 -8 -10 1 -19 11 -10 13 -9 12 7 -1 11 -1 20 -2 20
0 0 -5 -4 -11 -8z"/>
    <path d="M2290 5901 c0 -6 4 -13 10 -16 6 -3 7 1 4 9 -7 18 -14 21 -14 7z"/>
    <path d="M5724 5902 c3 -5 0 -13 -6 -15 -9 -4 -10 -6 -1 -6 17 -1 25 16 12 25
-7 4 -9 3 -5 -4z"/>
    <path d="M5827 5903 c-4 -3 -7 -11 -7 -17 0 -6 5 -5 12 2 6 6 9 14 7 17 -3 3
-9 2 -12 -2z"/>
    <path d="M5768 5874 c-16 -8 -28 -17 -28 -19 0 -10 16 -4 40 15 30 23 25 25
-12 4z"/>
    <path d="M5900 5879 c0 -5 5 -7 10 -4 6 3 10 8 10 11 0 2 -4 4 -10 4 -5 0 -10
-5 -10 -11z"/>
    <path d="M2223 5866 c3 -7 0 -19 -6 -25 -17 -17 1 -13 22 6 22 18 19 33 -6 33
-9 0 -13 -6 -10 -14z"/>
    <path d="M6510 5860 c0 -13 18 -22 24 -11 3 5 -1 11 -9 15 -8 3 -15 1 -15 -4z"/>
    <path d="M2190 5849 c0 -5 5 -7 10 -4 6 3 10 8 10 11 0 2 -4 4 -10 4 -5 0 -10
-5 -10 -11z"/>
    <path d="M5623 5835 c0 -16 -4 -39 -7 -50 -7 -18 -6 -18 4 -2 6 9 16 14 22 11
7 -5 9 -2 5 8 -3 9 0 22 6 29 10 11 9 11 -5 0 -14 -10 -17 -9 -21 11 -4 18 -5
16 -4 -7z"/>
    <path d="M5931 5838 c-14 -23 -14 -23 8 -4 22 20 25 26 13 26 -4 0 -13 -10
-21 -22z"/>
    <path d="M6680 5851 c0 -7 -4 -10 -9 -6 -5 3 -13 0 -17 -6 -4 -8 -3 -9 4 -5
18 11 14 -15 -5 -38 -17 -20 -17 -20 1 -6 19 15 40 59 31 68 -3 3 -5 0 -5 -7z"/>
    <path d="M2350 5840 c0 -5 7 -7 15 -4 8 4 15 8 15 10 0 2 -7 4 -15 4 -8 0 -15
-4 -15 -10z"/>
    <path d="M6303 5830 c-1 -11 2 -20 5 -20 4 0 8 9 9 20 1 11 -2 20 -5 20 -4 0
-8 -9 -9 -20z"/>
    <path d="M2150 5830 c0 -5 7 -7 15 -4 8 4 15 8 15 10 0 2 -7 4 -15 4 -8 0 -15
-4 -15 -10z"/>
    <path d="M2280 5834 c0 -5 7 -20 16 -32 18 -26 7 -30 -12 -4 -13 16 -13 16
-14 -1 0 -10 -5 -15 -11 -12 -13 8 -49 -23 -49 -42 0 -8 5 -11 10 -8 6 4 7 11
4 17 -5 7 -2 9 8 5 9 -3 24 0 34 8 10 7 23 11 30 8 18 -7 48 47 34 61 -6 6
-11 7 -10 1 5 -24 -1 -27 -20 -10 -11 10 -20 14 -20 9z m-20 -58 c0 -3 -4 -8
-10 -11 -5 -3 -10 -1 -10 4 0 6 5 11 10 11 6 0 10 -2 10 -4z"/>
    <path d="M6504 5790 c0 -27 1 -49 2 -47 8 7 21 86 14 82 -5 -3 -10 -1 -12 5
-1 5 -3 -13 -4 -40z"/>
    <path d="M1733 5809 c16 -12 24 -25 19 -28 -6 -4 -4 -11 4 -19 12 -11 14 -10
11 5 -4 26 -15 42 -40 53 -15 8 -13 4 6 -11z"/>
    <path d="M7374 5811 c-129 -79 -98 -241 46 -241 83 0 150 65 150 145 0 22 -7
51 -16 63 -36 52 -123 68 -180 33z m117 -51 c13 -7 19 -21 19 -45 0 -63 -102
-112 -144 -69 -22 21 -20 46 5 78 33 42 81 56 120 36z"/>
    <path d="M2130 5810 c0 -5 5 -10 11 -10 5 0 7 5 4 10 -3 6 -8 10 -11 10 -2 0
-4 -4 -4 -10z"/>
    <path d="M5865 5809 c-11 -17 1 -21 15 -4 8 9 8 15 2 15 -6 0 -14 -5 -17 -11z"/>
    <path d="M2097 5803 c-13 -12 -7 -23 11 -22 10 0 12 3 4 6 -6 2 -10 9 -6 14 6
10 0 12 -9 2z"/>
    <path d="M6440 5803 c0 -4 5 -15 10 -23 8 -13 10 -13 10 2 0 9 -4 20 -10 23
-5 3 -10 3 -10 -2z"/>
    <path d="M6615 5800 c-3 -5 -1 -10 4 -10 6 0 11 5 11 10 0 6 -2 10 -4 10 -3 0
-8 -4 -11 -10z"/>
    <path d="M6826 5787 c3 -10 9 -15 12 -12 3 3 0 11 -7 18 -10 9 -11 8 -5 -6z"/>
    <path d="M3106 5777 c3 -10 9 -15 12 -12 3 3 0 11 -7 18 -10 9 -11 8 -5 -6z"/>
    <path d="M6790 5780 c-9 -6 -10 -10 -3 -10 6 0 15 5 18 10 8 12 4 12 -15 0z"/>
    <path d="M5635 5771 c-6 -11 13 -26 22 -17 4 3 1 6 -6 6 -7 0 -9 5 -6 10 3 6
4 10 1 10 -3 0 -7 -4 -11 -9z"/>
    <path d="M5680 5754 c-9 -10 -9 -14 -1 -14 6 0 11 4 11 10 0 5 7 7 15 4 8 -4
15 -4 15 -1 0 13 -30 14 -40 1z"/>
    <path d="M6555 5738 c-20 -20 -24 -27 -10 -20 24 12 62 52 49 51 -5 0 -22 -14
-39 -31z"/>
    <path d="M6583 5733 c-18 -19 -33 -38 -33 -43 0 -4 -7 -13 -15 -20 -8 -7 -15
-18 -14 -24 0 -6 8 0 17 14 9 14 34 44 56 68 21 23 35 41 30 41 -5 -1 -24 -17
-41 -36z"/>
    <path d="M1800 5757 c0 -2 19 -17 43 -32 23 -16 37 -22 30 -14 -12 15 -73 53
-73 46z"/>
    <path d="M5607 5745 c3 -8 9 -12 14 -9 12 7 11 11 -5 17 -10 4 -13 1 -9 -8z"/>
    <path d="M6461 5750 c0 -8 4 -22 9 -30 12 -18 12 -2 0 25 -6 13 -9 15 -9 5z"/>
    <path d="M1014 5742 c-12 -2 -32 -14 -44 -27 -18 -19 -21 -33 -19 -73 4 -49 4
-49 -26 -48 -24 1 -31 -4 -33 -21 -4 -26 0 -29 264 -177 194 -108 224 -118
224 -71 0 19 -20 34 -110 85 -60 33 -110 62 -110 64 0 2 7 20 15 39 26 63 18
129 -21 173 -33 37 -98 63 -140 56z m65 -77 c38 -19 54 -66 41 -116 -6 -23
-17 -39 -25 -39 -21 0 -73 76 -81 116 -10 55 11 68 65 39z"/>
    <path d="M2510 5746 c0 -2 8 -10 18 -17 15 -13 16 -12 3 4 -13 16 -21 21 -21
13z"/>
    <path d="M6760 5740 c-9 -6 -10 -10 -3 -10 6 0 15 5 18 10 8 12 4 12 -15 0z"/>
    <path d="M5587 5734 c-3 -3 -3 -12 0 -20 4 -10 0 -12 -12 -8 -12 5 -16 2 -15
-12 4 -30 0 -40 -8 -26 -6 8 -15 0 -30 -27 -14 -25 -19 -42 -12 -46 6 -3 10 3
10 15 0 12 4 19 8 16 15 -9 65 62 68 97 1 19 0 20 -9 11z"/>
    <path d="M2135 5712 c4 -15 1 -24 -9 -28 -9 -3 -13 -10 -10 -16 3 -5 13 0 21
11 11 16 11 25 3 38 -9 16 -10 15 -5 -5z"/>
    <path d="M6689 5693 c-13 -17 -13 -17 6 -3 11 8 22 16 24 17 2 2 0 3 -6 3 -6
0 -17 -8 -24 -17z"/>
    <path d="M6386 5693 c6 -5 16 -17 23 -28 9 -15 11 -16 7 -2 -3 9 0 17 6 17 19
0 -1 14 -25 17 -12 2 -17 0 -11 -4z"/>
    <path d="M6478 5670 c2 -17 8 -33 13 -36 5 -3 7 5 5 18 -3 13 -5 29 -5 36 -1
6 -5 12 -9 12 -5 0 -7 -14 -4 -30z"/>
    <path d="M1903 5675 c0 -8 4 -12 9 -9 5 3 6 10 3 15 -9 13 -12 11 -12 -6z"/>
    <path d="M6620 5680 c0 -5 7 -7 15 -4 8 4 15 8 15 10 0 2 -7 4 -15 4 -8 0 -15
-4 -15 -10z"/>
    <path d="M1966 5665 c4 -8 8 -15 10 -15 2 0 4 7 4 15 0 8 -4 15 -10 15 -5 0
-7 -7 -4 -15z"/>
    <path d="M3166 5662 c6 -4 19 -22 28 -39 9 -18 19 -33 21 -33 3 0 -4 18 -15
40 -11 22 -26 40 -33 40 -8 0 -9 -2 -1 -8z"/>
    <path d="M6437 5664 c-4 -4 -7 -14 -7 -23 0 -14 2 -14 10 -1 8 12 10 10 11
-10 1 -17 3 -19 6 -8 5 20 -10 52 -20 42z"/>
    <path d="M6580 5648 c-11 -12 -20 -30 -20 -40 0 -10 -6 -18 -12 -19 -7 0 -3
-4 10 -9 12 -5 22 -14 22 -20 0 -6 -4 -9 -9 -5 -5 3 -12 2 -15 -3 -2 -4 18
-20 45 -35 33 -19 49 -24 49 -15 0 8 3 9 8 3 4 -5 18 -11 32 -12 19 -1 14 3
-17 17 -43 19 -57 40 -27 40 8 0 12 5 8 11 -3 6 -19 9 -34 5 -19 -3 -33 0 -41
10 -11 13 -8 19 19 41 18 13 32 29 32 35 0 6 -8 1 -19 -10 -10 -12 -24 -22
-31 -22 -8 0 -4 10 10 25 13 14 21 25 17 25 -3 0 -15 -10 -27 -22z m48 -118
c7 -12 8 -20 2 -20 -5 0 -10 5 -10 10 0 6 -7 10 -15 10 -8 0 -15 5 -15 10 0
17 25 11 38 -10z"/>
    <path d="M1730 5644 c0 -8 5 -12 10 -9 6 4 8 11 5 16 -9 14 -15 11 -15 -7z"/>
    <path d="M3140 5644 c0 -6 7 -19 15 -30 8 -10 14 -14 14 -9 0 6 -6 19 -14 29
-8 11 -15 15 -15 10z"/>
    <path d="M5755 5624 c-9 -15 -12 -23 -6 -20 11 7 35 46 28 46 -3 0 -12 -12
-22 -26z"/>
    <path d="M1980 5633 c0 -6 6 -16 14 -23 8 -6 12 -19 9 -28 -3 -11 -2 -13 4 -6
4 6 15 14 23 17 12 4 12 6 -2 6 -9 1 -24 11 -32 23 -9 12 -16 17 -16 11z"/>
    <path d="M2050 5631 c0 -6 4 -13 10 -16 6 -3 7 1 4 9 -7 18 -14 21 -14 7z"/>
    <path d="M2090 5620 c-6 -11 -8 -20 -6 -20 3 0 10 9 16 20 6 11 8 20 6 20 -3
0 -10 -9 -16 -20z"/>
    <path d="M6520 5619 c0 -5 -4 -7 -10 -4 -17 10 -11 -2 8 -16 9 -7 14 -9 10 -5
-4 5 -3 15 3 23 9 9 8 13 0 13 -6 0 -11 -5 -11 -11z"/>
    <path d="M1888 5603 c6 -2 18 -2 25 0 6 3 1 5 -13 5 -14 0 -19 -2 -12 -5z"/>
    <path d="M7565 5568 c-9 -13 -23 -48 -31 -78 -25 -89 -22 -84 -40 -69 -9 8
-25 33 -35 57 -20 45 -42 53 -62 21 -13 -20 23 -99 62 -135 53 -50 94 -25 125
78 27 87 44 96 72 36 13 -30 25 -43 39 -43 27 0 31 34 9 77 -27 55 -54 78 -90
78 -23 0 -38 -7 -49 -22z"/>
    <path d="M3220 5576 c0 -11 30 -39 36 -34 2 3 -5 13 -16 23 -11 10 -20 15 -20
11z"/>
    <path d="M6414 5565 c-3 -8 -3 -19 0 -24 4 -6 -4 -15 -16 -22 -36 -19 -89 -61
-84 -67 3 -2 13 3 22 12 10 10 20 14 26 8 9 -9 97 27 98 40 0 11 -25 3 -54
-15 -15 -10 -32 -17 -38 -15 -6 2 4 13 23 24 25 15 34 27 34 47 0 30 -3 34
-11 12z"/>
    <path d="M6686 5569 c2 -4 -2 -10 -8 -12 -8 -4 -9 -6 -2 -6 6 -1 17 5 23 12 8
10 7 14 -4 14 -8 0 -12 -4 -9 -8z"/>
    <path d="M2063 5538 c-10 -27 -10 -30 1 -16 11 16 15 16 37 2 24 -16 24 -16 3
3 -11 10 -23 24 -25 31 -2 7 -10 -2 -16 -20z"/>
    <path d="M6493 5564 c-13 -6 -6 -34 9 -34 5 0 19 -12 32 -27 17 -19 23 -22 23
-10 0 9 -4 14 -9 11 -4 -3 -8 2 -8 10 0 9 -5 16 -11 16 -5 0 -7 5 -3 12 5 8 2
9 -10 5 -14 -5 -17 -3 -12 8 3 8 4 15 3 14 -1 0 -7 -3 -14 -5z"/>
    <path d="M6748 5563 c7 -3 16 -2 19 1 4 3 -2 6 -13 5 -11 0 -14 -3 -6 -6z"/>
    <path d="M6890 5561 c-22 -6 -23 -8 -7 -14 27 -10 34 -9 34 8 0 8 -1 15 -1 14
-1 -1 -12 -4 -26 -8z"/>
    <path d="M2028 5553 c7 -3 16 -2 19 1 4 3 -2 6 -13 5 -11 0 -14 -3 -6 -6z"/>
    <path d="M3200 5551 c0 -10 19 -25 25 -20 1 2 -3 10 -11 17 -8 7 -14 8 -14 3z"/>
    <path d="M5675 5549 c-4 -6 -5 -12 -2 -15 2 -3 7 2 10 11 7 17 1 20 -8 4z"/>
    <path d="M1831 5524 c0 -11 3 -14 6 -6 3 7 2 16 -1 19 -3 4 -6 -2 -5 -13z"/>
    <path d="M6458 5533 c7 -3 16 -2 19 1 4 3 -2 6 -13 5 -11 0 -14 -3 -6 -6z"/>
    <path d="M3268 5510 c13 -32 62 -117 62 -107 0 8 -57 117 -66 126 -3 3 -1 -6
4 -19z"/>
    <path d="M1482 5495 c0 -16 2 -22 5 -12 2 9 2 23 0 30 -3 6 -5 -1 -5 -18z"/>
    <path d="M1665 5510 c-3 -6 1 -7 9 -4 18 7 21 14 7 14 -6 0 -13 -4 -16 -10z"/>
    <path d="M1920 5510 c-8 -5 -10 -10 -5 -10 6 0 17 5 25 10 8 5 11 10 5 10 -5
0 -17 -5 -25 -10z"/>
    <path d="M2005 5510 c-3 -5 3 -10 15 -10 12 0 18 5 15 10 -3 6 -10 10 -15 10
-5 0 -12 -4 -15 -10z"/>
    <path d="M3237 5489 c10 -17 24 -36 32 -42 8 -7 2 7 -14 31 -32 49 -45 57 -18
11z"/>
    <path d="M1614 5489 c-3 -6 -1 -16 5 -22 8 -8 11 -5 11 11 0 24 -5 28 -16 11z"/>
    <path d="M5437 5493 c-4 -3 -7 -11 -7 -17 0 -6 5 -5 12 2 6 6 9 14 7 17 -3 3
-9 2 -12 -2z"/>
    <path d="M6583 5477 c10 -8 14 -17 9 -18 -6 -2 -4 -10 4 -17 12 -11 14 -9 14
7 0 11 -10 25 -22 31 -21 10 -22 10 -5 -3z"/>
    <path d="M6720 5481 c0 -6 5 -13 12 -17 7 -4 8 -3 4 4 -4 7 -2 12 3 12 6 0 11
-4 11 -10 0 -5 5 -10 11 -10 8 0 8 5 -1 15 -14 17 -40 20 -40 6z"/>
    <path d="M6465 5471 c-3 -5 -2 -12 3 -15 5 -3 9 1 9 9 0 17 -3 19 -12 6z"/>
    <path d="M845 5441 c-124 -56 -58 -241 85 -241 149 0 178 168 40 238 -53 27
-73 27 -125 3z m124 -77 c56 -47 36 -104 -38 -104 -62 0 -116 81 -79 118 22
22 84 14 117 -14z"/>
    <path d="M5390 5453 c0 -15 18 -35 23 -27 3 5 -1 15 -9 22 -8 7 -14 9 -14 5z"/>
    <path d="M6780 5451 c0 -6 4 -12 8 -15 5 -3 9 1 9 9 0 8 -4 15 -9 15 -4 0 -8
-4 -8 -9z"/>
    <path d="M6313 5428 c-18 -13 -33 -27 -33 -32 0 -5 12 1 28 15 15 13 31 27 37
31 20 17 -2 7 -32 -14z"/>
    <path d="M1530 5421 c5 -11 15 -23 21 -27 6 -3 3 5 -6 20 -20 30 -30 35 -15 7z"/>
    <path d="M6250 5408 c-19 -16 -26 -26 -15 -20 18 9 64 53 54 52 -2 -1 -20 -15
-39 -32z"/>
    <path d="M6640 5427 c0 -11 4 -15 12 -11 7 5 9 2 6 -8 -4 -9 6 -26 25 -44 24
-23 28 -24 19 -7 -7 12 -17 24 -24 27 -7 4 -3 4 10 2 19 -4 21 -2 11 10 -6 8
-14 12 -17 10 -2 -3 -13 5 -23 17 -16 20 -18 20 -19 4z"/>
    <path d="M7854 5432 c-17 -11 -22 -35 -12 -54 12 -24 55 -23 68 1 13 25 13 27
-6 45 -17 17 -33 20 -50 8z"/>
    <path d="M1651 5414 c0 -11 3 -14 6 -6 3 7 2 16 -1 19 -3 4 -6 -2 -5 -13z"/>
    <path d="M1585 5390 c10 -11 20 -20 23 -20 3 0 -3 9 -13 20 -10 11 -20 20 -23
20 -3 0 3 -9 13 -20z"/>
    <path d="M1895 5390 c-10 -11 -16 -22 -14 -24 2 -2 12 7 22 20 22 29 17 32 -8
4z"/>
    <path d="M6886 5393 c-6 -14 -5 -15 5 -6 7 7 10 15 7 18 -3 3 -9 -2 -12 -12z"/>
    <path d="M3291 5384 c0 -11 3 -14 6 -6 3 7 2 16 -1 19 -3 4 -6 -2 -5 -13z"/>
    <path d="M1662 5370 c0 -14 2 -19 5 -12 2 6 2 18 0 25 -3 6 -5 1 -5 -13z"/>
    <path d="M6249 5373 c-13 -16 -12 -17 4 -4 16 13 21 21 13 21 -2 0 -10 -8 -17
-17z"/>
    <path d="M7630 5330 c-98 -44 -105 -50 -105 -76 0 -26 3 -29 30 -27 17 0 74
22 128 47 98 46 115 64 85 94 -17 17 -21 16 -138 -38z"/>
    <path d="M5549 5343 c-13 -16 -12 -17 4 -4 9 7 17 15 17 17 0 8 -8 3 -21 -13z"/>
    <path d="M1599 5348 c-7 -24 -5 -38 7 -38 8 0 14 -5 14 -12 0 -6 3 -8 7 -5 3
4 -1 15 -10 25 -10 10 -14 22 -10 25 3 4 3 7 0 7 -4 0 -7 -1 -8 -2z"/>
    <path d="M6730 5346 c0 -2 8 -10 18 -17 15 -13 16 -12 3 4 -13 16 -21 21 -21
13z"/>
    <path d="M8030 5341 c-8 -5 -114 -45 -235 -91 -121 -45 -224 -86 -229 -91 -12
-11 8 -77 37 -120 51 -76 130 -99 207 -59 89 46 94 128 9 179 l-29 18 128 47
c174 66 190 77 156 110 -17 18 -23 19 -44 7z m-244 -236 c26 -17 31 -46 11
-63 -44 -37 -122 -15 -150 43 -15 31 -15 34 1 39 30 9 114 -3 138 -19z"/>
    <path d="M1672 5320 c0 -14 2 -19 5 -12 2 6 2 18 0 25 -3 6 -5 1 -5 -13z"/>
    <path d="M1846 5323 c-6 -14 -5 -15 5 -6 7 7 10 15 7 18 -3 3 -9 -2 -12 -12z"/>
    <path d="M1435 5320 c-8 -12 12 -40 28 -40 6 0 3 6 -8 13 -10 8 -15 19 -11 25
4 7 5 12 2 12 -3 0 -8 -5 -11 -10z"/>
    <path d="M6720 5320 c0 -5 5 -10 11 -10 5 0 7 5 4 10 -3 6 -8 10 -11 10 -2 0
-4 -4 -4 -10z"/>
    <path d="M6790 5313 c8 -3 19 -11 23 -17 6 -7 7 -6 4 4 -2 8 -12 16 -23 17
-13 2 -15 1 -4 -4z"/>
    <path d="M1528 5287 c12 -7 19 -17 15 -22 -4 -4 -2 -5 6 0 12 7 11 10 -4 22
-11 7 -24 13 -29 13 -6 -1 -1 -6 12 -13z"/>
    <path d="M6742 5296 c2 -1 12 -8 22 -16 17 -13 18 -13 11 -1 -6 11 -4 13 9 8
9 -4 15 -3 12 2 -3 5 -17 9 -31 9 -14 0 -25 -1 -23 -2z"/>
    <path d="M1571 5267 c2 -2 20 -14 39 -26 l35 -23 -30 26 c-16 14 -34 26 -39
26 -5 0 -7 -1 -5 -3z"/>
    <path d="M3896 5239 c4 -19 10 -38 15 -43 4 -5 4 8 -1 29 -11 47 -22 59 -14
14z"/>
    <path d="M5276 5253 c-6 -14 -5 -15 5 -6 7 7 10 15 7 18 -3 3 -9 -2 -12 -12z"/>
    <path d="M1510 5255 c0 -2 14 -10 31 -19 19 -10 29 -11 27 -4 -4 10 -58 32
-58 23z"/>
    <path d="M6855 5231 c-3 -10 -2 -26 1 -36 5 -12 4 -16 -4 -11 -6 3 -13 2 -16
-3 -3 -5 1 -11 9 -15 20 -7 27 8 19 40 -5 19 -4 25 4 20 8 -5 10 -2 6 8 -8 21
-11 20 -19 -3z"/>
    <path d="M1710 5236 c0 -2 8 -10 18 -17 15 -13 16 -12 3 4 -13 16 -21 21 -21
13z"/>
    <path d="M3360 5231 c0 -6 4 -13 10 -16 6 -3 7 1 4 9 -7 18 -14 21 -14 7z"/>
    <path d="M3412 5213 c7 -18 32 -54 56 -80 41 -45 42 -45 15 -8 -15 22 -34 44
-40 48 -7 4 -13 14 -13 21 0 7 -7 21 -15 32 -13 17 -13 16 -3 -13z"/>
    <path d="M4581 5224 c0 -11 3 -14 6 -6 3 7 2 16 -1 19 -3 4 -6 -2 -5 -13z"/>
    <path d="M5233 5213 c-10 -10 -14 -14 -7 -10 7 5 14 3 16 -5 3 -7 7 -3 10 10
7 27 6 27 -19 5z"/>
    <path d="M5436 5217 c3 -10 9 -15 12 -12 3 3 0 11 -7 18 -10 9 -11 8 -5 -6z"/>
    <path d="M1581 5217 c2 -1 13 -9 24 -17 19 -14 19 -14 6 3 -7 9 -18 17 -24 17
-6 0 -8 -1 -6 -3z"/>
    <path d="M3382 5180 c7 -11 17 -20 22 -20 5 0 1 9 -9 20 -10 11 -20 20 -22 20
-2 0 2 -9 9 -20z"/>
    <path d="M4571 5184 c0 -11 3 -14 6 -6 3 7 2 16 -1 19 -3 4 -6 -2 -5 -13z"/>
    <path d="M1468 5183 c7 -3 16 -2 19 1 4 3 -2 6 -13 5 -11 0 -14 -3 -6 -6z"/>
    <path d="M1760 5184 c0 -7 7 -14 15 -18 8 -3 15 -12 15 -19 0 -8 7 -20 15 -27
26 -21 16 4 -15 40 -16 19 -29 30 -30 24z"/>
    <path d="M2258 5183 c7 -3 16 -2 19 1 4 3 -2 6 -13 5 -11 0 -14 -3 -6 -6z"/>
    <path d="M735 5166 c-97 -43 -97 -167 1 -223 73 -42 162 -20 197 50 23 46 16
86 -25 132 -44 50 -114 67 -173 41z m105 -66 c8 -5 24 -18 34 -29 16 -17 18
-27 10 -48 -26 -74 -173 -29 -162 49 6 41 65 55 118 28z"/>
    <path d="M1533 5173 c9 -2 25 -2 35 0 9 3 1 5 -18 5 -19 0 -27 -2 -17 -5z"/>
    <path d="M6468 5173 c6 -2 18 -2 25 0 6 3 1 5 -13 5 -14 0 -19 -2 -12 -5z"/>
    <path d="M6775 5165 c-3 -8 -7 -22 -9 -29 -3 -9 0 -13 8 -10 8 3 14 16 14 30
0 27 -6 31 -13 9z"/>
    <path d="M5180 5148 c-12 -22 -12 -22 6 -6 10 10 15 20 12 24 -4 3 -12 -5 -18
-18z"/>
    <path d="M5216 5153 c-6 -14 -5 -15 5 -6 7 7 10 15 7 18 -3 3 -9 -2 -12 -12z"/>
    <path d="M1370 5156 c0 -2 7 -7 16 -10 8 -3 12 -2 9 4 -6 10 -25 14 -25 6z"/>
    <path d="M6718 5153 c7 -3 16 -2 19 1 4 3 -2 6 -13 5 -11 0 -14 -3 -6 -6z"/>
    <path d="M6820 5150 c0 -5 4 -10 10 -10 5 0 7 -8 4 -17 -5 -15 -4 -16 5 -3 15
21 13 40 -4 40 -8 0 -15 -4 -15 -10z"/>
    <path d="M1430 5140 c-9 -6 -10 -10 -3 -10 6 0 15 5 18 10 8 12 4 12 -15 0z"/>
    <path d="M5377 5133 c-4 -3 -7 -11 -7 -17 0 -6 5 -5 12 2 6 6 9 14 7 17 -3 3
-9 2 -12 -2z"/>
    <path d="M1732 5119 c-13 -5 -29 -6 -34 -2 -7 3 -8 1 -4 -5 8 -14 42 -10 58 6
14 14 11 14 -20 1z"/>
    <path d="M6914 5122 c3 -6 -2 -13 -11 -15 -16 -4 -16 -5 -1 -6 21 -1 32 15 17
25 -7 4 -9 3 -5 -4z"/>
    <path d="M7040 5120 c-11 -7 -11 -10 -2 -10 7 0 11 -4 8 -9 -10 -16 33 1 46
18 10 13 10 14 -2 4 -17 -15 -44 -17 -35 -3 8 12 4 12 -15 0z"/>
    <path d="M1837 5109 c7 -7 15 -10 18 -7 3 3 -2 9 -12 12 -14 6 -15 5 -6 -5z"/>
    <path d="M5152 5094 c-7 -14 -8 -23 -3 -20 5 4 11 1 13 -6 3 -7 7 -5 11 6 4
11 3 15 -4 10 -8 -4 -9 1 -4 15 9 29 1 26 -13 -5z"/>
    <path d="M6978 5096 c-10 -7 -18 -18 -18 -25 0 -6 -5 -11 -11 -11 -5 0 -7 5
-4 10 3 6 1 10 -5 10 -7 0 -9 -7 -6 -16 4 -11 2 -15 -8 -11 -8 3 -20 0 -26 -8
-10 -12 -7 -13 18 -5 42 11 68 27 63 37 -2 4 7 14 20 20 13 7 17 13 9 13 -8
-1 -23 -7 -32 -14z"/>
    <path d="M1788 5093 c7 -3 16 -2 19 1 4 3 -2 6 -13 5 -11 0 -14 -3 -6 -6z"/>
    <path d="M4541 5084 c0 -11 3 -14 6 -6 3 7 2 16 -1 19 -3 4 -6 -2 -5 -13z"/>
    <path d="M5329 5098 c-1 -2 -3 -13 -4 -26 -2 -21 -1 -22 16 -6 11 10 19 22 19
27 0 6 -7 2 -16 -9 -13 -16 -15 -16 -10 -1 4 13 0 25 -5 15z"/>
    <path d="M1730 5083 c0 -1 9 -7 20 -13 15 -8 20 -8 20 3 0 7 -9 13 -20 13 -11
0 -20 -1 -20 -3z"/>
    <path d="M1820 5086 c0 -2 7 -9 15 -16 13 -11 14 -10 9 4 -5 14 -24 23 -24 12z"/>
    <path d="M1871 5088 c2 -2 18 -14 34 -28 l30 -25 -24 28 c-14 15 -29 27 -34
27 -6 0 -8 -1 -6 -2z"/>
    <path d="M6870 5080 c-9 -6 -10 -10 -3 -10 6 0 15 5 18 10 8 12 4 12 -15 0z"/>
    <path d="M1599 5063 c-13 -16 -12 -17 4 -4 9 7 17 15 17 17 0 8 -8 3 -21 -13z"/>
    <path d="M1681 5056 c-1 -16 0 -27 2 -25 1 2 11 15 22 29 14 17 15 21 3 12
-13 -10 -17 -10 -21 0 -3 7 -6 0 -6 -16z"/>
    <path d="M3520 5074 c1 -13 29 -48 34 -43 2 2 -4 15 -15 28 -10 13 -19 19 -19
15z"/>
    <path d="M1657 5050 c-3 -11 -1 -20 4 -20 5 0 9 9 9 20 0 11 -2 20 -4 20 -2 0
-6 -9 -9 -20z"/>
    <path d="M3470 5063 c0 -6 8 -17 18 -24 16 -13 16 -13 2 6 -8 11 -16 22 -17
24 -2 2 -3 0 -3 -6z"/>
    <path d="M6804 5055 c-5 -11 -10 -13 -19 -5 -14 11 -33 -5 -21 -17 3 -4 6 -1
6 6 0 8 6 6 18 -5 15 -16 17 -16 20 -1 2 9 9 14 17 11 7 -3 16 -1 20 5 4 7 0
8 -11 4 -12 -4 -15 -3 -10 5 4 7 2 12 -4 12 -6 0 -13 -7 -16 -15z"/>
    <path d="M1535 5049 c-4 -6 -5 -12 -2 -15 2 -3 7 2 10 11 7 17 1 20 -8 4z"/>
    <path d="M6863 5029 c-2 -23 3 -25 10 -4 4 8 3 16 -1 19 -4 3 -9 -4 -9 -15z"/>
    <path d="M4562 5010 c0 -19 2 -27 5 -17 2 9 2 25 0 35 -3 9 -5 1 -5 -18z"/>
    <path d="M3527 4996 c12 -26 19 -33 21 -22 2 10 10 15 18 12 16 -6 18 2 5 22
-6 11 -10 10 -15 -5 -7 -16 -9 -16 -27 7 l-20 25 18 -39z"/>
    <path d="M6821 5016 c-10 -12 -8 -13 8 -9 12 3 21 9 21 14 0 14 -16 11 -29 -5z"/>
    <path d="M6738 5008 c-16 -5 -28 -16 -28 -24 0 -8 -5 -14 -11 -14 -5 0 -8 4
-5 9 4 5 -3 7 -13 4 -12 -3 -17 -11 -14 -20 3 -8 12 -12 20 -9 8 3 19 6 24 6
5 0 9 7 9 15 0 13 11 19 32 17 3 -1 9 5 12 13 3 8 4 15 3 14 -1 0 -14 -5 -29
-11z"/>
    <path d="M8035 4984 c-60 -20 -167 -54 -237 -75 -119 -37 -128 -42 -128 -65 0
-14 7 -27 15 -30 16 -7 480 132 503 149 7 6 12 20 10 31 -4 31 -39 29 -163
-10z"/>
    <path d="M5258 4975 c-25 -34 -22 -43 3 -11 12 15 20 29 18 31 -2 1 -12 -7
-21 -20z"/>
    <path d="M6835 4990 c-3 -5 -1 -10 4 -10 6 0 11 5 11 10 0 6 -2 10 -4 10 -3 0
-8 -4 -11 -10z"/>
    <path d="M6914 4975 c34 -29 40 -31 32 -9 -4 11 -1 14 12 10 9 -3 31 -8 47
-11 23 -5 26 -4 14 4 -10 6 -36 13 -58 15 -23 2 -44 6 -48 10 -3 3 -11 6 -17
6 -6 0 2 -11 18 -25z"/>
    <path d="M330 4948 c-31 -68 -27 -172 8 -239 88 -168 337 -199 457 -57 74 88
94 225 32 216 -17 -2 -25 -14 -33 -49 -22 -90 -58 -137 -129 -170 -127 -59
-285 42 -285 182 0 12 5 49 12 81 10 50 10 61 -2 68 -27 18 -41 10 -60 -32z"/>
    <path d="M5080 4970 c-6 -11 -8 -20 -6 -20 3 0 10 9 16 20 6 11 8 20 6 20 -3
0 -10 -9 -16 -20z"/>
    <path d="M6854 4976 c-9 -10 -6 -13 17 -14 16 0 27 4 23 9 -3 5 -9 7 -14 4 -4
-3 -10 -1 -12 4 -1 5 -8 3 -14 -3z"/>
    <path d="M3590 4968 c0 -11 30 -78 35 -78 3 0 -2 17 -10 37 -15 36 -25 52 -25
41z"/>
    <path d="M6738 4963 c7 -3 16 -2 19 1 4 3 -2 6 -13 5 -11 0 -14 -3 -6 -6z"/>
    <path d="M6770 4966 c0 -3 8 -15 17 -26 18 -20 33 -26 33 -12 -1 8 -50 46 -50
38z"/>
    <path d="M6810 4959 c0 -5 5 -7 10 -4 6 3 10 8 10 11 0 2 -4 4 -10 4 -5 0 -10
-5 -10 -11z"/>
    <path d="M3205 4940 c10 -11 20 -20 23 -20 3 0 -3 9 -13 20 -10 11 -20 20 -23
20 -3 0 3 -9 13 -20z"/>
    <path d="M3237 4945 c3 -8 9 -12 14 -9 12 7 11 11 -5 17 -10 4 -13 1 -9 -8z"/>
    <path d="M6600 4950 c-9 -6 -10 -10 -3 -10 6 0 15 5 18 10 8 12 4 12 -15 0z"/>
    <path d="M7068 4953 c7 -3 16 -2 19 1 4 3 -2 6 -13 5 -11 0 -14 -3 -6 -6z"/>
    <path d="M7160 4939 c0 -5 4 -8 9 -4 5 3 12 1 15 -4 4 -5 -2 -12 -11 -14 -14
-4 -13 -5 5 -6 24 -1 28 9 10 27 -15 15 -28 15 -28 1z"/>
    <path d="M3561 4924 c0 -11 3 -14 6 -6 3 7 2 16 -1 19 -3 4 -6 -2 -5 -13z"/>
    <path d="M5050 4929 c0 -5 5 -7 10 -4 6 3 10 8 10 11 0 2 -4 4 -10 4 -5 0 -10
-5 -10 -11z"/>
    <path d="M6985 4930 c3 -5 11 -10 16 -10 6 0 7 5 4 10 -3 6 -11 10 -16 10 -6
0 -7 -4 -4 -10z"/>
    <path d="M5209 4913 c-13 -16 -12 -17 4 -4 9 7 17 15 17 17 0 8 -8 3 -21 -13z"/>
    <path d="M7020 4921 c0 -5 7 -12 16 -15 14 -5 15 -4 4 9 -14 17 -20 19 -20 6z"/>
    <path d="M5060 4895 c-7 -9 -11 -17 -9 -20 3 -2 10 5 17 15 14 24 10 26 -8 5z"/>
    <path d="M6530 4900 c-8 -5 -10 -10 -5 -10 6 0 17 5 25 10 8 5 11 10 5 10 -5
0 -17 -5 -25 -10z"/>
    <path d="M7073 4897 c0 -7 8 -13 18 -13 13 0 15 3 7 13 -6 7 -14 13 -18 13 -3
0 -7 -6 -7 -13z"/>
    <path d="M3580 4880 c0 -11 4 -20 9 -20 5 0 7 9 4 20 -3 11 -7 20 -9 20 -2 0
-4 -9 -4 -20z"/>
    <path d="M3640 4875 c0 -5 5 -17 10 -25 5 -8 10 -10 10 -5 0 6 -5 17 -10 25
-5 8 -10 11 -10 5z"/>
    <path d="M6436 4855 c-11 -8 -15 -15 -10 -15 6 0 19 7 30 15 10 8 15 14 9 14
-5 0 -19 -6 -29 -14z"/>
    <path d="M5010 4855 c0 -5 5 -17 10 -25 5 -8 10 -10 10 -5 0 6 -5 17 -10 25
-5 8 -10 11 -10 5z"/>
    <path d="M3610 4831 c0 -6 4 -13 10 -16 6 -3 7 1 4 9 -7 18 -14 21 -14 7z"/>
    <path d="M5139 4823 c-13 -16 -12 -17 4 -4 9 7 17 15 17 17 0 8 -8 3 -21 -13z"/>
    <path d="M3660 4820 c0 -5 5 -10 11 -10 5 0 7 5 4 10 -3 6 -8 10 -11 10 -2 0
-4 -4 -4 -10z"/>
    <path d="M4990 4810 c-6 -11 -8 -20 -6 -20 3 0 10 9 16 20 6 11 8 20 6 20 -3
0 -10 -9 -16 -20z"/>
    <path d="M1260 4811 c0 -10 19 -25 25 -20 1 2 -3 10 -11 17 -8 7 -14 8 -14 3z"/>
    <path d="M6315 4810 c-8 -13 5 -13 25 0 13 8 13 10 -2 10 -9 0 -20 -4 -23 -10z"/>
    <path d="M4301 4794 c0 -11 3 -14 6 -6 3 7 2 16 -1 19 -3 4 -6 -2 -5 -13z"/>
    <path d="M1338 4793 c7 -3 16 -2 19 1 4 3 -2 6 -13 5 -11 0 -14 -3 -6 -6z"/>
    <path d="M3340 4791 c0 -6 4 -13 10 -16 6 -3 7 1 4 9 -7 18 -14 21 -14 7z"/>
    <path d="M3654 4765 c35 -51 42 -57 23 -19 -9 17 -23 37 -33 44 -9 8 -4 -3 10
-25z"/>
    <path d="M5093 4785 c0 -8 4 -15 9 -15 4 0 8 4 8 9 0 6 -4 12 -8 15 -5 3 -9
-1 -9 -9z"/>
    <path d="M1307 4779 c7 -7 15 -10 18 -7 3 3 -2 9 -12 12 -14 6 -15 5 -6 -5z"/>
    <path d="M1385 4780 c11 -5 27 -9 35 -9 9 0 8 4 -5 9 -11 5 -27 9 -35 9 -9 0
-8 -4 5 -9z"/>
    <path d="M4486 4764 c-4 -14 -5 -28 -3 -31 3 -2 8 8 11 23 4 14 5 28 3 31 -3
2 -8 -8 -11 -23z"/>
    <path d="M7786 4766 c-54 -28 -81 -80 -72 -141 9 -54 44 -109 74 -113 33 -5
38 23 13 72 -11 24 -21 58 -21 77 1 34 1 34 30 -22 33 -64 80 -95 129 -84 46
10 66 40 66 97 0 45 -4 53 -42 89 -23 21 -53 39 -65 40 -13 0 -34 2 -47 3 -13
2 -42 -7 -65 -18z m132 -69 c21 -17 34 -59 23 -70 -23 -23 -69 16 -86 72 -7
22 -5 23 21 17 16 -4 35 -13 42 -19z"/>
    <path d="M1380 4760 c0 -6 7 -10 15 -10 8 0 15 2 15 4 0 2 -7 6 -15 10 -8 3
-15 1 -15 -4z"/>
    <path d="M1430 4755 c-8 -9 -6 -14 6 -19 9 -4 19 -4 22 -1 3 3 0 5 -6 5 -7 0
-12 4 -12 10 0 6 9 6 26 -1 15 -5 29 -8 31 -5 2 2 -9 8 -26 14 -23 8 -32 7
-41 -3z"/>
    <path d="M3382 4741 c7 -11 18 -23 25 -25 22 -9 14 8 -13 28 -25 18 -25 18
-12 -3z"/>
    <path d="M3711 4755 c1 -19 18 -51 18 -35 0 8 -4 22 -9 30 -5 8 -9 11 -9 5z"/>
    <path d="M5061 4727 c-13 -21 -12 -21 5 -5 10 10 16 20 13 22 -3 3 -11 -5 -18
-17z"/>
    <path d="M4037 4721 c3 -13 -2 -20 -21 -25 -19 -5 -28 -16 -37 -48 -7 -29 -8
-48 -1 -59 6 -9 15 -34 21 -55 6 -22 20 -45 31 -52 19 -11 24 -10 41 12 15 19
28 25 52 23 40 -3 45 17 22 88 -12 38 -29 64 -61 94 -25 23 -47 41 -49 41 -2
0 -1 -8 2 -19z m11 -53 c-3 -7 -13 -15 -23 -16 -15 -4 -16 -2 -4 12 17 19 32
21 27 4z m22 -58 c0 -5 -4 -10 -10 -10 -5 0 -10 5 -10 10 0 6 5 10 10 10 6 0
10 -4 10 -10z m25 -10 c3 -5 1 -10 -4 -10 -6 0 -11 5 -11 10 0 6 2 10 4 10 3
0 8 -4 11 -10z"/>
    <path d="M1600 4722 c0 -8 -5 -10 -12 -6 -9 5 -10 4 -3 -3 6 -6 21 -14 35 -18
17 -4 21 -3 11 3 -7 5 -17 16 -22 23 -7 11 -9 11 -9 1z"/>
    <path d="M4471 4700 c-1 -10 -12 -15 -37 -16 -40 -1 -55 -17 -52 -54 2 -16 -3
-26 -13 -28 -12 -2 -19 7 -24 35 -4 21 -11 44 -17 51 -14 16 -50 15 -73 -2
-18 -13 -19 -29 -18 -225 0 -198 -8 -260 -23 -173 -8 47 -32 130 -47 160 -15
31 -51 38 -83 17 -23 -15 -26 -22 -21 -59 3 -22 10 -79 16 -126 6 -47 21 -119
34 -160 22 -72 24 -75 60 -84 32 -8 40 -7 53 10 8 10 12 12 8 4 -10 -18 -13
-100 -5 -100 4 0 8 -14 9 -31 1 -18 9 -44 17 -58 7 -14 19 -40 26 -58 15 -37
38 -46 74 -30 17 8 24 18 21 30 -2 9 -1 17 4 17 13 0 18 51 9 82 -7 25 -6 28
6 18 18 -15 20 1 3 19 -10 11 -10 13 0 7 9 -5 12 4 12 32 0 21 -3 42 -7 46 -4
3 -7 15 -8 27 -2 17 3 15 32 -13 39 -38 40 -45 10 -106 -33 -66 -27 -92 22
-92 32 0 52 21 143 150 56 80 75 114 83 150 11 53 19 70 36 75 25 8 43 43 31
58 -14 17 -11 44 5 44 8 0 10 -4 3 -12 -11 -13 16 -17 35 -6 6 3 2 -2 -8 -11
-11 -10 -15 -18 -10 -18 13 0 63 57 63 71 0 5 5 7 10 4 6 -4 10 6 11 22 0 24
2 25 8 8 7 -18 8 -18 24 5 19 31 31 91 23 118 -8 23 -55 35 -73 20 -18 -15
-16 3 3 31 13 18 18 20 25 10 5 -8 9 -9 9 -4 0 6 -4 16 -9 24 -8 12 -14 7 -31
-22 -12 -20 -22 -40 -23 -44 0 -4 -13 -21 -28 -38 -16 -16 -36 -45 -46 -65
-10 -19 -21 -37 -26 -38 -4 -2 -12 -13 -19 -25 -10 -20 -10 -21 6 -8 9 8 19
11 23 7 3 -3 1 -6 -5 -6 -7 0 -12 -5 -12 -12 0 -6 -8 -20 -17 -31 -17 -19 -17
-19 3 -13 18 6 21 3 19 -18 -2 -18 1 -23 11 -19 8 3 14 0 14 -6 0 -6 -12 -11
-26 -11 -19 0 -25 4 -21 15 4 8 1 17 -5 21 -7 5 -8 2 -3 -7 7 -11 6 -12 -6 -2
-31 25 -63 4 -114 -77 -28 -44 -53 -79 -56 -80 -6 0 -2 29 15 108 3 12 8 72
12 132 6 92 4 113 -10 134 -12 19 -15 45 -13 105 2 64 -1 83 -14 93 -9 7 -19
20 -22 28 -5 13 -6 13 -6 0z m-178 -217 c7 3 11 10 10 16 -2 6 2 11 7 11 14 0
12 -28 -2 -32 -9 -3 -8 -9 5 -22 23 -23 22 -26 -9 -26 -21 0 -25 4 -21 20 6
22 -8 28 -17 8 -2 -7 -3 -2 -1 12 2 14 5 39 6 55 2 26 3 25 6 -8 3 -24 9 -37
16 -34z m147 12 c11 -13 10 -14 -4 -9 -9 3 -16 10 -16 15 0 13 6 11 20 -6z
m-40 -40 c10 -37 10 -63 0 -135 -7 -51 -10 -122 -7 -163 4 -51 3 -67 -4 -54
-6 9 -16 14 -22 11 -7 -4 -9 -4 -5 1 4 4 0 14 -9 20 -22 17 -71 2 -91 -26
l-15 -22 -10 24 c-11 29 -21 129 -12 129 16 0 45 -22 45 -35 0 -15 64 -40 80
-30 14 8 13 42 -2 51 -7 5 -9 2 -5 -9 4 -10 2 -14 -6 -11 -17 6 -18 54 -1 54
8 0 14 -6 14 -12 0 -7 5 -5 11 4 5 10 13 54 16 99 6 80 5 81 -16 74 -17 -5
-21 -2 -21 16 0 19 2 20 16 8 15 -13 17 -11 12 19 -7 49 17 40 32 -13z m426
-31 c2 -12 0 -14 -9 -5 -6 6 -12 18 -13 27 -2 12 0 14 9 5 6 -6 12 -18 13 -27z
m-726 18 c0 -5 -7 -9 -15 -9 -8 0 -12 4 -9 9 3 4 9 8 15 8 5 0 9 -4 9 -8z
m800 -2 c0 -5 -4 -10 -10 -10 -5 0 -10 5 -10 10 0 6 5 10 10 10 6 0 10 -4 10
-10z m-43 -15 c0 -8 -4 -12 -9 -9 -5 3 -6 10 -3 15 9 13 12 11 12 -6z m-687
-32 c0 -15 -3 -23 -7 -20 -9 10 -10 56 -1 51 4 -3 8 -17 8 -31z m314 22 c-4
-8 -8 -15 -10 -15 -2 0 -4 7 -4 15 0 8 4 15 10 15 5 0 7 -7 4 -15z m-189 -15
c9 7 17 5 26 -7 8 -9 9 -14 3 -10 -7 4 -14 -2 -17 -14 -4 -15 0 -23 14 -26 10
-3 16 -9 13 -14 -3 -5 1 -12 9 -15 8 -3 14 -16 13 -28 -1 -18 -6 -22 -21 -18
-11 3 -14 7 -7 10 6 2 12 10 12 18 0 14 -11 18 -42 15 -10 -1 -18 3 -18 9 0 6
4 8 10 5 10 -6 0 26 -21 68 -9 18 -9 20 2 10 8 -8 16 -9 24 -3z m-164 -51 c-5
-13 -10 -17 -11 -9 0 13 -1 13 -10 0 -8 -13 -10 -12 -10 3 0 9 7 17 15 17 8 0
15 5 15 12 0 6 2 9 5 6 3 -3 1 -16 -4 -29z m226 4 c1 -24 1 -25 -7 -8 -11 26
-12 35 -2 35 4 0 8 -12 9 -27z m-197 -90 c12 -11 12 -13 -1 -13 -9 0 -21 12
-28 28 -9 22 -9 24 2 12 7 -8 19 -21 27 -27z m150 23 c0 -3 -4 -8 -10 -11 -5
-3 -10 -1 -10 4 0 6 5 11 10 11 6 0 10 -2 10 -4z m-196 -43 c-17 -17 -18 -17
-11 0 4 10 7 24 7 30 0 8 3 8 11 0 9 -9 7 -16 -7 -30z m40 -48 c3 -8 1 -15 -5
-15 -6 0 -17 7 -25 15 -14 13 -13 15 4 15 11 0 22 -7 26 -15z m286 -25 c0 -5
-5 -10 -11 -10 -5 0 -7 5 -4 10 3 6 8 10 11 10 2 0 4 -4 4 -10z m190 -10 c0
-5 -5 -10 -11 -10 -5 0 -7 5 -4 10 3 6 8 10 11 10 2 0 4 -4 4 -10z m-457 -12
c-5 -7 -8 -23 -7 -35 1 -26 -11 -31 -20 -8 -3 8 -1 15 5 15 6 0 7 5 3 11 -3 6
0 15 7 20 19 12 23 11 12 -3z m48 -35 c-10 -4 -10 -7 -2 -13 9 -5 8 -10 -4
-20 -13 -11 -15 -9 -15 14 0 18 5 26 18 25 12 0 13 -2 3 -6z m-31 -48 c0 -8
-2 -15 -4 -15 -2 0 -6 7 -10 15 -3 8 -1 15 4 15 6 0 10 -7 10 -15z m354 -47
c-3 -4 -12 -8 -20 -8 -8 0 -13 4 -10 8 3 5 12 9 20 9 8 0 13 -4 10 -9z m-13
-28 c10 -6 19 -16 19 -23 0 -8 -3 -8 -9 2 -5 7 -13 11 -19 7 -5 -3 -12 1 -16
9 -6 18 -1 19 25 5z"/>
    <path d="M3758 4670 c14 -16 28 -27 31 -25 5 6 -39 55 -50 55 -4 0 5 -13 19
-30z"/>
    <path d="M4911 4673 c-10 -26 -10 -27 4 -9 8 11 15 23 15 28 0 15 -7 8 -19
-19z"/>
    <path d="M1660 4682 c8 -5 26 -13 40 -16 17 -5 20 -4 10 2 -8 5 -26 13 -40 16
-17 5 -20 4 -10 -2z"/>
    <path d="M1617 4669 c7 -7 15 -10 18 -7 3 3 -2 9 -12 12 -14 6 -15 5 -6 -5z"/>
    <path d="M2530 4676 c0 -2 7 -7 16 -10 8 -3 12 -2 9 4 -6 10 -25 14 -25 6z"/>
    <path d="M1591 4644 c0 -11 3 -14 6 -6 3 7 2 16 -1 19 -3 4 -6 -2 -5 -13z"/>
    <path d="M3475 4630 c10 -11 20 -20 23 -20 3 0 -3 9 -13 20 -10 11 -20 20 -23
20 -3 0 3 -9 13 -20z"/>
    <path d="M4881 4618 c-13 -22 -13 -23 6 -5 11 9 23 14 26 10 4 -3 7 -1 7 5 0
20 -24 13 -39 -10z"/>
    <path d="M3360 4626 c0 -2 8 -10 18 -17 15 -13 16 -12 3 4 -13 16 -21 21 -21
13z"/>
    <path d="M4680 4598 c-7 -18 -9 -19 -9 -5 -1 26 -12 21 -72 -32 l-54 -49 13
-33 c16 -40 16 -36 9 -116 -6 -71 7 -90 51 -70 29 14 78 103 59 110 -7 3 -6 6
4 6 18 1 20 6 50 90 16 45 17 61 8 88 -13 39 -45 45 -59 11z m43 -63 c-3 -9
-8 -14 -10 -11 -3 3 -2 9 2 15 9 16 15 13 8 -4z m-33 -49 c0 -3 -4 -8 -10 -11
-5 -3 -10 -1 -10 4 0 6 5 11 10 11 6 0 10 -2 10 -4z"/>
    <path d="M3405 4580 c3 -5 8 -10 11 -10 2 0 4 5 4 10 0 6 -5 10 -11 10 -5 0
-7 -4 -4 -10z"/>
    <path d="M3808 4583 c-29 -7 -32 -62 -8 -127 19 -51 71 -141 90 -156 4 -3 15
-24 26 -47 13 -29 25 -43 39 -43 14 0 16 -3 8 -8 -17 -11 11 -50 44 -63 20 -7
30 -6 44 7 27 24 23 70 -9 131 -120 228 -187 316 -234 306z m27 -51 c-3 -3
-11 0 -18 7 -9 10 -8 11 6 5 10 -3 15 -9 12 -12z m65 -82 c0 -5 -8 -10 -17
-10 -14 0 -15 -2 -5 -9 10 -6 7 -10 -11 -13 -23 -5 -24 -3 -14 19 10 22 47 33
47 13z m24 -32 c-3 -4 3 -8 13 -9 11 0 13 -3 5 -6 -6 -2 -10 -8 -8 -12 3 -4
-2 -8 -10 -8 -8 0 -13 6 -10 14 3 7 1 13 -4 13 -6 0 -10 4 -10 8 0 5 7 9 15 9
8 0 12 -4 9 -9z m-24 -33 c0 -8 -4 -15 -10 -15 -5 0 -7 7 -4 15 4 8 8 15 10
15 2 0 4 -7 4 -15z m120 -215 c0 -5 -4 -10 -10 -10 -5 0 -10 5 -10 10 0 6 5
10 10 10 6 0 10 -4 10 -10z"/>
    <path d="M3542 4564 c10 -10 20 -16 22 -13 3 3 -5 11 -17 18 -21 13 -21 12 -5
-5z"/>
    <path d="M5189 4540 c-13 -10 -20 -19 -16 -20 4 0 17 9 29 20 28 26 17 26 -13
0z"/>
    <path d="M3446 4535 c4 -8 11 -15 16 -15 6 0 5 6 -2 15 -7 8 -14 15 -16 15 -2
0 -1 -7 2 -15z"/>
    <path d="M3570 4536 c0 -2 8 -10 18 -17 15 -13 16 -12 3 4 -13 16 -21 21 -21
13z"/>
    <path d="M6980 4509 c0 -5 5 -7 10 -4 6 3 10 8 10 11 0 2 -4 4 -10 4 -5 0 -10
-5 -10 -11z"/>
    <path d="M3639 4477 c-16 -15 -19 -26 -13 -50 11 -51 38 -81 101 -111 32 -16
66 -37 76 -47 23 -24 10 -24 -30 0 -23 15 -120 41 -149 41 -1 0 -10 -7 -19
-16 -14 -15 -14 -19 5 -51 11 -19 20 -43 20 -54 0 -10 7 -19 15 -19 9 0 39
-17 68 -38 48 -35 122 -69 157 -71 8 -1 30 -3 48 -5 22 -3 35 1 38 9 7 18 -14
57 -26 50 -6 -3 -7 0 -5 8 3 7 -4 26 -17 42 -12 16 -21 39 -20 52 2 14 -13 46
-42 87 -25 35 -46 71 -46 80 0 9 -18 36 -40 60 -48 51 -89 63 -121 33z m121
-81 c0 -2 -7 -7 -16 -10 -8 -3 -12 -2 -9 4 6 10 25 14 25 6z m80 -111 c10 -12
10 -15 -4 -15 -9 0 -16 7 -16 15 0 8 2 15 4 15 2 0 9 -7 16 -15z m28 -33 c9
-6 10 -16 3 -34 -7 -18 -6 -29 2 -38 9 -10 9 -11 0 -6 -8 5 -13 1 -14 -11 0
-15 -2 -14 -12 5 -7 16 -7 26 -1 30 19 12 25 42 9 42 -8 0 -15 5 -15 10 0 12
10 13 28 2z m-174 -18 c3 -8 2 -12 -4 -9 -6 3 -10 10 -10 16 0 14 7 11 14 -7z
m80 -35 c-3 -5 2 -9 10 -9 9 0 16 -7 16 -16 0 -9 5 -12 12 -8 7 4 8 3 4 -5 -4
-6 -11 -9 -16 -6 -4 3 -11 -1 -14 -7 -3 -7 -3 -3 0 10 4 15 1 22 -10 22 -10 0
-13 -6 -10 -17 4 -10 -3 -5 -14 10 -13 20 -21 25 -25 15 -3 -10 -9 -9 -23 6
-11 10 -14 16 -7 12 6 -3 22 -2 35 3 26 9 51 4 42 -10z m-59 -39 c3 -6 -1 -7
-9 -4 -18 7 -21 14 -7 14 6 0 13 -4 16 -10z m61 -48 c-4 -3 -14 2 -24 12 -16
18 -16 18 6 6 13 -6 21 -14 18 -18z m144 -39 c0 -19 -13 -9 -16 12 -1 8 2 13
7 9 5 -3 9 -12 9 -21z"/>
    <path d="M7139 4487 c7 -7 14 -8 21 -1 6 6 2 10 -12 11 -16 2 -18 -1 -9 -10z"/>
    <path d="M5117 4471 c4 -3 10 -10 14 -14 3 -4 11 -2 17 5 8 10 5 13 -15 14
-13 1 -21 -1 -16 -5z"/>
    <path d="M530 4418 c-15 -42 -17 -43 -64 -48 l-50 -5 38 -25 c36 -24 37 -26
31 -73 -6 -52 -3 -53 50 -14 18 14 24 13 62 -10 24 -14 43 -23 43 -20 0 2 -6
23 -14 45 l-15 41 35 30 c19 17 34 33 34 36 0 3 -22 5 -48 5 -48 0 -49 1 -62
40 -7 22 -16 40 -19 40 -4 0 -13 -19 -21 -42z"/>
    <path d="M5079 4443 c-13 -16 -12 -17 4 -4 16 13 21 21 13 21 -2 0 -10 -8 -17
-17z"/>
    <path d="M6986 4448 c3 -5 10 -6 15 -3 13 9 11 12 -6 12 -8 0 -12 -4 -9 -9z"/>
    <path d="M7954 4422 c-19 -36 -21 -37 -69 -34 l-50 3 34 -35 34 -35 -17 -42
c-9 -23 -15 -43 -13 -45 2 -2 20 6 41 17 37 20 39 20 60 2 56 -49 56 -49 50 4
-5 47 -5 49 33 73 l38 25 -47 9 c-44 9 -47 11 -53 48 -9 51 -17 53 -41 10z"/>
    <path d="M7231 4414 c0 -11 3 -14 6 -6 3 7 2 16 -1 19 -3 4 -6 -2 -5 -13z"/>
    <path d="M7035 4401 c-7 -22 -20 -28 -28 -11 -3 6 -4 5 -3 -2 2 -8 -15 -18
-38 -25 -37 -11 -37 -12 -7 -8 19 3 40 0 48 -6 11 -10 12 -8 6 7 -6 17 -5 18
12 4 17 -14 18 -13 12 3 -4 11 -2 17 8 17 17 0 19 9 6 29 -7 11 -10 9 -16 -8z"/>
    <path d="M3551 4401 c-31 -8 -46 -32 -38 -62 13 -48 21 -53 63 -39 46 15 71
34 28 21 -40 -12 -47 -14 -60 -12 -15 1 -24 46 -13 63 6 9 9 8 9 -7 l1 -20 11
20 c6 11 18 26 26 33 17 13 11 14 -27 3z"/>
    <path d="M1195 4390 c-3 -5 -1 -10 4 -10 6 0 11 5 11 10 0 6 -2 10 -4 10 -3 0
-8 -4 -11 -10z"/>
    <path d="M3598 4383 c7 -3 16 -2 19 1 4 3 -2 6 -13 5 -11 0 -14 -3 -6 -6z"/>
    <path d="M5380 4374 l-25 -15 25 7 c28 7 35 12 29 18 -2 2 -15 -2 -29 -10z"/>
    <path d="M1230 4361 c0 -6 4 -13 10 -16 6 -3 7 1 4 9 -7 18 -14 21 -14 7z"/>
    <path d="M3070 4366 c0 -2 9 -6 20 -9 11 -3 18 -1 14 4 -5 9 -34 13 -34 5z"/>
    <path d="M3560 4360 c0 -6 7 -10 15 -10 8 0 15 2 15 4 0 2 -7 6 -15 10 -8 3
-15 1 -15 -4z"/>
    <path d="M4955 4363 c-12 -2 -40 -22 -64 -43 -24 -22 -47 -40 -52 -40 -4 0
-12 -6 -16 -14 -4 -8 -32 -41 -61 -74 -30 -33 -52 -62 -51 -64 2 -2 -7 -20
-19 -40 -13 -21 -21 -42 -18 -47 8 -13 45 -20 52 -10 3 5 14 9 26 9 11 0 38
17 60 38 79 73 187 187 188 197 0 6 9 16 21 23 11 7 18 19 15 27 -3 8 -1 17 5
20 29 19 -26 30 -86 18z m45 -47 c0 -3 -4 -8 -10 -11 -5 -3 -10 -1 -10 4 0 6
5 11 10 11 6 0 10 -2 10 -4z m-227 -221 c-3 -9 -8 -14 -10 -11 -3 3 -2 9 2 15
9 16 15 13 8 -4z"/>
    <path d="M6888 4363 c6 -2 18 -2 25 0 6 3 1 5 -13 5 -14 0 -19 -2 -12 -5z"/>
    <path d="M1360 4354 c0 -10 62 -44 70 -39 15 10 -20 40 -47 40 -13 1 -23 0
-23 -1z m51 -21 c13 -16 12 -17 -3 -4 -10 7 -18 15 -18 17 0 8 8 3 21 -13z"/>
    <path d="M3641 4337 c2 -1 13 -9 24 -17 19 -14 19 -14 6 3 -7 9 -18 17 -24 17
-6 0 -8 -1 -6 -3z"/>
    <path d="M7166 4325 c-3 -9 0 -15 9 -15 9 0 12 6 9 15 -4 8 -7 15 -9 15 -2 0
-5 -7 -9 -15z"/>
    <path d="M3415 4309 c-11 -16 -1 -19 13 -3 7 8 8 14 3 14 -5 0 -13 -5 -16 -11z"/>
    <path d="M1441 4301 c-9 -6 -8 -11 5 -22 9 -8 20 -13 23 -12 3 0 5 -3 4 -8 -4
-11 14 -12 21 -1 8 13 -39 51 -53 43z"/>
    <path d="M3452 4290 c0 -14 2 -19 5 -12 2 6 2 18 0 25 -3 6 -5 1 -5 -13z"/>
    <path d="M7100 4300 c35 -24 54 -31 30 -11 -14 11 -29 21 -35 21 -5 0 -3 -5 5
-10z"/>
    <path d="M7266 4301 c-4 -5 3 -7 14 -4 23 6 26 13 6 13 -8 0 -17 -4 -20 -9z"/>
    <path d="M7357 4286 c-4 -10 -1 -13 9 -9 15 6 19 23 5 23 -5 0 -11 -7 -14 -14z"/>
    <path d="M1332 4262 c8 -9 14 -10 16 -3 2 6 9 8 15 4 7 -3 9 -2 4 2 -4 5 -16
9 -27 10 -16 1 -17 -1 -8 -13z"/>
    <path d="M3305 4250 c3 -5 8 -10 11 -10 2 0 4 5 4 10 0 6 -5 10 -11 10 -5 0
-7 -4 -4 -10z"/>
    <path d="M3480 4250 c0 -5 -6 -10 -12 -10 -7 0 -26 -7 -41 -15 -15 -8 -35 -12
-45 -9 -9 2 -3 -2 13 -10 17 -8 38 -30 47 -50 14 -29 26 -38 69 -50 57 -17 79
-19 103 -10 25 10 19 22 -9 16 -15 -2 -25 0 -25 7 0 6 -5 11 -11 11 -5 0 -7
-5 -4 -10 4 -7 -3 -9 -22 -5 -49 11 -52 14 -48 35 3 13 -1 20 -12 20 -13 0
-13 -3 -3 -15 11 -13 10 -14 -4 -9 -19 7 -20 20 -3 38 10 12 15 12 30 -1 13
-13 17 -13 17 -3 0 8 9 24 21 36 23 25 18 44 -12 44 -16 0 -18 -3 -10 -19 8
-14 7 -22 -4 -31 -11 -9 -15 -9 -15 -1 0 6 5 11 10 11 7 0 7 6 0 20 -11 21
-30 27 -30 10z"/>
    <path d="M5055 4230 c-79 -39 -152 -107 -157 -145 -2 -23 1 -31 16 -33 11 -3
16 0 12 7 -4 6 -3 11 3 11 5 0 11 -5 13 -10 6 -20 105 20 166 67 48 37 63 55
68 81 12 60 -29 67 -121 22z m52 -62 c-3 -7 -5 -2 -5 12 0 14 2 19 5 13 2 -7
2 -19 0 -25z m-122 -88 c3 -5 1 -10 -4 -10 -6 0 -11 5 -11 10 0 6 2 10 4 10 3
0 8 -4 11 -10z"/>
    <path d="M1504 4228 c3 -22 24 -53 31 -47 3 4 -1 13 -9 22 -8 8 -13 17 -10 20
3 3 1 8 -4 11 -6 3 -9 0 -8 -6z"/>
    <path d="M1536 4215 c4 -8 8 -15 10 -15 2 0 4 7 4 15 0 8 -4 15 -10 15 -5 0
-7 -7 -4 -15z"/>
    <path d="M3559 4227 c0 -1 -2 -13 -5 -26 -3 -19 -2 -21 9 -13 10 9 14 8 14 -2
0 -15 -14 -16 -35 -2 -10 6 -13 3 -10 -10 2 -12 12 -19 25 -18 12 0 19 -4 16
-9 -3 -5 3 -6 16 -2 14 4 21 2 21 -7 0 -8 5 -6 11 5 8 13 5 24 -13 47 -19 24
-46 45 -49 37z"/>
    <path d="M6916 4183 c-6 -14 -5 -15 5 -6 7 7 10 15 7 18 -3 3 -9 -2 -12 -12z"/>
    <path d="M1140 4173 c1 -17 28 -43 44 -43 10 0 24 6 31 14 12 12 12 15 -1 20
-24 9 -41 7 -24 -4 8 -5 11 -12 7 -17 -10 -10 -43 12 -39 26 1 6 -2 11 -8 11
-5 0 -10 -3 -10 -7z"/>
    <path d="M6887 4163 c-4 -3 -7 -11 -7 -17 0 -6 5 -5 12 2 6 6 9 14 7 17 -3 3
-9 2 -12 -2z"/>
    <path d="M7202 4155 l-23 -12 23 -7 c33 -8 36 -8 34 9 -3 21 -9 23 -34 10z"/>
    <path d="M1260 4150 c0 -5 -10 -11 -22 -13 -13 -2 -4 -5 20 -6 43 -1 58 13 22
22 -11 3 -20 1 -20 -3z"/>
    <path d="M3635 4140 c3 -6 20 -17 37 -26 22 -11 27 -18 18 -24 -8 -5 -9 -9 -1
-14 16 -10 31 2 25 19 -3 8 -21 23 -40 35 -39 22 -48 25 -39 10z"/>
    <path d="M1368 4133 c7 -3 16 -2 19 1 4 3 -2 6 -13 5 -11 0 -14 -3 -6 -6z"/>
    <path d="M7052 4128 c9 -7 19 -20 22 -28 3 -8 4 -5 2 7 -3 17 2 23 23 26 16 2
9 5 -18 6 -38 1 -42 -1 -29 -11z"/>
    <path d="M1528 4118 c5 -5 16 -8 23 -6 8 3 3 7 -10 11 -17 4 -21 3 -13 -5z"/>
    <path d="M1570 4116 c0 -2 7 -6 15 -10 8 -3 15 -1 15 4 0 6 -7 10 -15 10 -8 0
-15 -2 -15 -4z"/>
    <path d="M3240 4110 c0 -5 5 -10 11 -10 5 0 7 5 4 10 -3 6 -8 10 -11 10 -2 0
-4 -4 -4 -10z"/>
    <path d="M3415 4097 c-33 -18 -55 -51 -51 -75 2 -12 -1 -25 -5 -28 -14 -8 -10
-24 5 -24 8 0 16 -3 18 -7 6 -15 68 -54 68 -44 0 11 64 7 133 -9 43 -9 45 -5
14 33 -12 15 -35 45 -52 67 -16 21 -36 39 -42 40 -7 0 -13 6 -13 13 0 7 -12
20 -28 29 -21 13 -32 14 -47 5z"/>
    <path d="M3640 4101 c0 -10 19 -25 25 -20 1 2 -3 10 -11 17 -8 7 -14 8 -14 3z"/>
    <path d="M1388 4093 c7 -3 16 -2 19 1 4 3 -2 6 -13 5 -11 0 -14 -3 -6 -6z"/>
    <path d="M1486 4088 c3 -5 10 -6 15 -3 13 9 11 12 -6 12 -8 0 -12 -4 -9 -9z"/>
    <path d="M1524 4080 c0 -12 5 -16 16 -12 13 5 13 3 1 -11 -18 -23 -11 -29 10
-8 16 15 15 17 -5 32 -20 16 -22 16 -22 -1z"/>
    <path d="M3317 4070 c10 -11 22 -20 28 -20 5 0 3 5 -5 10 -8 5 -10 10 -5 10 6
0 3 5 -5 10 -25 16 -31 11 -13 -10z"/>
    <path d="M3998 4078 c-25 -9 -28 -15 -28 -52 0 -24 3 -46 7 -50 12 -12 32 -80
26 -89 -3 -6 -2 -7 4 -4 5 4 23 -7 39 -24 40 -43 76 -59 126 -59 47 0 62 7 70
30 8 24 -30 90 -63 108 -16 9 -29 23 -29 30 0 11 -13 16 -32 13 -5 0 -7 2 -6
7 4 12 -30 57 -59 78 -22 17 -34 19 -55 12z m155 -154 c-7 -19 -10 -18 -16 5
-3 13 -1 18 9 14 7 -2 10 -11 7 -19z m-56 0 c-3 -3 -12 -4 -19 -1 -8 3 -5 6 6
6 11 1 17 -2 13 -5z m98 -24 c3 -5 1 -10 -4 -10 -6 0 -11 5 -11 10 0 6 2 10 4
10 3 0 8 -4 11 -10z m-110 -9 c3 -5 2 -12 -3 -15 -5 -3 -9 1 -9 9 0 17 3 19
12 6z m55 -59 c0 -12 -3 -12 -15 -2 -8 7 -15 13 -15 15 0 1 7 2 15 2 8 0 15
-7 15 -15z m90 -1 c0 -5 -7 -11 -14 -14 -10 -4 -13 -1 -9 9 6 15 23 19 23 5z"/>
    <path d="M5110 4082 c-62 -7 -150 -63 -150 -94 0 -6 -7 -19 -16 -29 -21 -23
-11 -49 18 -49 13 1 63 9 113 20 49 10 94 16 99 13 5 -4 6 -1 2 6 -4 7 5 18
23 29 57 32 51 60 -17 88 -26 11 -58 18 -72 16z"/>
    <path d="M1203 4060 c-18 -11 -33 -23 -33 -27 0 -4 5 -2 12 5 15 15 31 16 22
0 -4 -7 -3 -8 5 -4 6 4 8 12 5 18 -5 7 -2 9 8 6 9 -4 15 0 15 8 0 8 -1 14 -1
14 -1 0 -16 -9 -33 -20z"/>
    <path d="M3576 4064 c-19 -18 -17 -22 43 -93 53 -62 125 -100 234 -121 37 -8
64 -16 59 -19 -4 -3 -13 -18 -20 -34 -10 -24 -9 -29 8 -39 11 -7 20 -19 20
-27 0 -11 -3 -11 -16 0 -19 15 -58 14 -174 -7 -94 -17 -101 -19 -182 -58 -61
-30 -72 -51 -40 -78 17 -16 122 -29 122 -16 0 5 30 7 68 7 37 -1 89 2 116 6
57 9 57 -6 1 -25 -19 -6 -35 -15 -35 -20 0 -5 -25 -33 -56 -62 -61 -57 -84
-94 -84 -131 0 -25 34 -44 46 -26 3 5 10 7 15 3 12 -7 98 24 121 44 10 8 15
19 12 24 -4 6 3 5 15 -1 32 -17 26 -27 -31 -54 -30 -13 -87 -56 -131 -98 -68
-64 -79 -80 -84 -115 -4 -35 -2 -44 18 -58 32 -22 95 -20 133 4 33 20 98 91
132 145 10 17 21 32 24 35 11 11 40 69 40 80 0 16 -30 39 -51 40 -9 0 -22 7
-29 15 -10 11 -9 18 3 30 18 18 31 20 21 3 -5 -7 -3 -8 5 -4 7 5 10 13 8 20
-3 6 0 19 7 27 12 17 51 35 41 20 -3 -5 5 -11 17 -13 21 -3 23 -7 20 -57 -2
-34 -10 -65 -22 -82 -11 -15 -20 -30 -20 -35 0 -4 -12 -23 -26 -41 -20 -26
-28 -50 -31 -98 -5 -55 -3 -65 17 -85 l22 -22 38 40 c32 34 62 87 119 212 12
27 13 28 -6 -62 -4 -24 -2 -28 16 -28 14 0 28 11 39 31 26 48 40 64 46 58 3
-3 -1 -20 -9 -37 -9 -17 -19 -50 -23 -73 -8 -47 -27 -62 -37 -30 -24 76 -138
-55 -170 -194 -26 -111 -1 -175 69 -175 58 0 81 35 96 143 6 40 10 82 9 92 -4
38 1 75 10 75 5 0 9 -22 9 -49 0 -92 41 -122 92 -68 40 42 51 88 45 178 -8
102 -7 99 -16 99 -5 0 -14 19 -20 43 -7 23 -21 49 -32 58 -20 16 -19 17 10 60
79 115 104 230 55 255 -19 9 -20 13 -8 17 18 7 46 -1 46 -13 0 -5 7 -16 16
-25 14 -13 14 -20 4 -45 -7 -17 -10 -40 -7 -52 4 -12 2 -27 -2 -32 -10 -13
-30 -74 -37 -112 -3 -16 -9 -33 -14 -39 -11 -14 5 -88 27 -121 13 -20 23 -24
52 -22 34 3 36 5 42 48 8 59 -7 238 -22 256 -7 8 -9 18 -5 21 9 9 26 -17 26
-40 0 -10 14 -52 31 -93 23 -55 41 -82 68 -102 20 -15 42 -33 49 -39 7 -7 22
-13 33 -13 11 0 22 6 24 13 10 26 12 63 4 82 -4 11 -16 47 -25 80 -29 98 -45
118 -149 190 -11 7 -17 16 -13 20 4 4 53 9 110 12 116 6 201 35 213 73 8 25
-18 70 -40 70 -8 0 -15 3 -15 8 0 7 8 12 143 79 94 47 120 80 97 123 -11 21
-17 22 -71 16 -33 -3 -65 -10 -72 -16 -18 -15 -167 -90 -178 -90 -5 0 -21 -11
-36 -24 l-25 -24 21 -21 c11 -11 27 -21 35 -21 8 0 18 -5 22 -12 5 -7 2 -9 -7
-6 -48 18 -219 -44 -219 -79 0 -19 -18 -16 -88 11 -49 19 -63 22 -72 11 -6 -7
-26 -15 -45 -18 -31 -5 -40 -1 -70 29 -36 35 -69 43 -106 24 -13 -8 -19 -7
-19 0 0 6 -4 8 -10 5 -5 -3 -11 -1 -11 4 -1 6 -2 17 -3 24 0 6 -11 13 -24 15
-12 2 -20 8 -16 13 3 5 10 7 15 4 24 -16 4 16 -42 65 -43 46 -50 59 -47 86 2
18 0 30 -4 28 -4 -3 -8 -17 -8 -31 l0 -27 -28 27 c-19 19 -52 32 -115 47 -105
24 -102 24 -121 4z m191 -59 c0 -8 -4 -12 -9 -9 -4 3 -8 9 -8 15 0 5 4 9 8 9
5 0 9 -7 9 -15z m-42 -45 c-3 -5 -12 -10 -18 -10 -7 0 -6 4 3 10 19 12 23 12
15 0z m69 -5 c-4 -8 -13 -15 -21 -15 -8 0 -11 -5 -7 -12 4 -7 3 -8 -4 -4 -15
9 -5 34 16 39 10 3 18 5 19 6 1 0 0 -6 -3 -14z m954 -10 c-3 -3 -9 2 -12 12
-6 14 -5 15 5 6 7 -7 10 -15 7 -18z m-23 5 c3 -5 1 -10 -4 -10 -6 0 -11 5 -11
10 0 6 2 10 4 10 3 0 8 -4 11 -10z m-892 -48 c-4 -8 -8 -10 -12 -4 -3 5 -15
12 -26 15 -12 3 -7 5 11 4 23 -1 30 -5 27 -15z m760 -19 c-7 -2 -21 -2 -30 0
-10 3 -4 5 12 5 17 0 24 -2 18 -5z m-654 -84 c-16 -10 -23 -4 -14 10 3 6 11 8
17 5 6 -4 5 -9 -3 -15z m71 -112 c1 4 10 -3 22 -17 12 -14 19 -18 15 -8 -3 9
0 19 9 22 21 8 17 -28 -6 -49 -10 -9 -26 -15 -34 -12 -8 3 -17 -1 -20 -10 -5
-11 -2 -14 11 -9 13 5 12 1 -6 -18 -21 -23 -24 -23 -40 -8 -9 10 -13 20 -9 23
5 3 11 18 14 34 3 16 8 33 11 39 4 6 -1 5 -11 -3 -9 -8 -15 -22 -13 -32 3 -12
-3 -19 -22 -22 -35 -7 -37 -3 -13 31 14 19 20 39 17 61 l-4 32 39 -31 c22 -18
40 -28 40 -23z m220 32 c0 -4 -7 -9 -15 -13 -9 -3 -15 0 -15 8 0 7 7 13 15 13
8 0 15 -4 15 -8z m82 -11 c-7 -7 -12 -8 -12 -2 0 6 3 14 7 17 3 4 9 5 12 2 2
-3 -1 -11 -7 -17z m-592 -17 c15 -28 -4 -34 -26 -9 -11 12 -13 18 -6 14 6 -4
12 -2 12 3 0 17 8 13 20 -8z m481 0 c13 -11 15 -18 8 -27 -6 -7 -7 -19 -3 -26
5 -10 4 -10 -6 -1 -11 10 -11 15 0 28 7 8 8 15 3 15 -5 0 -18 7 -29 15 -12 10
-14 14 -5 13 8 -2 23 -9 32 -17z m-357 -12 c-3 -5 -10 -7 -15 -3 -5 3 -7 10
-3 15 3 5 10 7 15 3 5 -3 7 -10 3 -15z m-187 5 c-3 -3 -12 -4 -19 -1 -8 3 -5
6 6 6 11 1 17 -2 13 -5z m121 -30 c-4 -3 -12 5 -18 18 -12 22 -12 22 6 6 10
-10 15 -20 12 -24z m32 26 c0 -5 -5 -10 -11 -10 -5 0 -7 5 -4 10 3 6 8 10 11
10 2 0 4 -4 4 -10z m361 -13 c-6 -8 -8 -17 -4 -21 4 -4 0 -4 -10 0 -17 6 -17
7 0 20 23 17 28 18 14 1z m-551 -12 c0 -8 -7 -15 -16 -15 -14 0 -14 3 -4 15 7
8 14 15 16 15 2 0 4 -7 4 -15z m74 4 c3 -3 -4 -5 -14 -6 -11 -1 -20 2 -20 7 0
8 25 8 34 -1z m-105 -46 c2 -2 -3 -3 -11 -3 -9 0 -19 7 -22 16 -6 15 -4 15 11
3 10 -7 20 -15 22 -16z m161 15 c0 -4 -10 -8 -22 -8 -45 0 -58 -4 -58 -17 0
-7 -7 -13 -16 -13 -14 0 -14 1 0 16 9 8 16 18 16 22 0 4 18 7 40 7 22 0 40 -3
40 -7z m404 -72 c-31 -58 -36 -75 -31 -114 3 -26 10 -48 16 -50 22 -7 10 -22
-18 -22 -24 0 -30 5 -34 30 -8 36 -31 39 -65 8 l-24 -23 7 25 c5 14 8 33 7 42
0 11 15 23 45 34 39 15 49 25 66 63 16 39 56 86 64 77 2 -1 -14 -33 -33 -70z
m-77 9 c0 -8 -4 -12 -9 -9 -5 3 -6 10 -3 15 9 13 12 11 12 -6z m-17 -25 c8 -5
11 -10 5 -10 -5 0 -17 5 -25 10 -8 5 -10 10 -5 10 6 0 17 -5 25 -10z m363 -10
c3 -11 1 -18 -4 -14 -5 3 -9 12 -9 20 0 20 7 17 13 -6z m-603 -64 c0 -2 -7 -7
-16 -10 -8 -3 -12 -2 -9 4 6 10 25 14 25 6z m546 -108 c5 -7 3 -8 -6 -3 -10 6
-12 4 -6 -11 5 -14 4 -16 -5 -7 -6 6 -8 16 -5 22 9 14 13 14 22 -1z m-6 -93
c11 -13 10 -14 -4 -9 -9 3 -16 10 -16 15 0 13 6 11 20 -6z m-373 -51 c-3 -3
-12 -4 -19 -1 -8 3 -5 6 6 6 11 1 17 -2 13 -5z m-292 -64 c3 -5 2 -10 -4 -10
-5 0 -13 5 -16 10 -3 6 -2 10 4 10 5 0 13 -4 16 -10z m-48 -32 c-3 -7 -5 -2
-5 12 0 14 2 19 5 13 2 -7 2 -19 0 -25z m33 -13 c14 -19 14 -19 -2 -6 -10 7
-18 18 -18 24 0 6 1 8 3 6 1 -2 9 -13 17 -24z m520 -35 c0 -5 -4 -10 -10 -10
-5 0 -10 5 -10 10 0 6 5 10 10 10 6 0 10 -4 10 -10z m-10 -36 c0 -8 -19 -13
-24 -6 -3 5 1 9 9 9 8 0 15 -2 15 -3z m-160 -158 c0 -11 -19 -15 -25 -6 -3 5
1 10 9 10 9 0 16 -2 16 -4z"/>
    <path d="M3965 3601 c-3 -5 -1 -12 5 -16 5 -3 10 1 10 9 0 18 -6 21 -15 7z"/>
    <path d="M7100 4069 c0 -5 5 -7 10 -4 6 3 10 8 10 11 0 2 -4 4 -10 4 -5 0 -10
-5 -10 -11z"/>
    <path d="M1925 4030 c-3 -5 -1 -10 4 -10 6 0 11 5 11 10 0 6 -2 10 -4 10 -3 0
-8 -4 -11 -10z"/>
    <path d="M3915 4020 c10 -11 20 -20 23 -20 3 0 -3 9 -13 20 -10 11 -20 20 -23
20 -3 0 3 -9 13 -20z"/>
    <path d="M5690 4020 c0 -5 4 -10 9 -10 6 0 13 5 16 10 3 6 -1 10 -9 10 -9 0
-16 -4 -16 -10z"/>
    <path d="M5905 4020 c-16 -7 -17 -9 -3 -9 9 -1 20 4 23 9 7 11 7 11 -20 0z"/>
    <path d="M5588 4003 c7 -3 16 -2 19 1 4 3 -2 6 -13 5 -11 0 -14 -3 -6 -6z"/>
    <path d="M5270 3990 c-8 -5 -10 -10 -5 -10 6 0 17 5 25 10 8 5 11 10 5 10 -5
0 -17 -5 -25 -10z"/>
    <path d="M5460 3964 c0 -8 5 -12 10 -9 6 4 8 11 5 16 -9 14 -15 11 -15 -7z"/>
    <path d="M5968 3973 c6 -2 18 -2 25 0 6 3 1 5 -13 5 -14 0 -19 -2 -12 -5z"/>
    <path d="M5608 3963 c7 -3 16 -2 19 1 4 3 -2 6 -13 5 -11 0 -14 -3 -6 -6z"/>
    <path d="M7120 3958 c0 -4 4 -8 9 -8 6 0 12 4 15 8 3 5 -1 9 -9 9 -8 0 -15 -4
-15 -9z"/>
    <path d="M7091 3944 c-7 -9 -20 -13 -30 -9 -12 5 -13 3 -5 -5 13 -13 54 3 54
20 0 13 -2 12 -19 -6z"/>
    <path d="M2740 3935 c-10 -13 -9 -15 9 -15 12 0 21 6 21 15 0 8 -4 15 -9 15
-5 0 -14 -7 -21 -15z"/>
    <path d="M6820 3918 c0 -4 4 -8 9 -8 6 0 12 4 15 8 3 5 -1 9 -9 9 -8 0 -15 -4
-15 -9z"/>
    <path d="M2976 3905 c-20 -15 -20 -15 0 -15 10 0 30 -3 43 -7 l24 -6 -21 21
c-26 26 -22 25 -46 7z"/>
    <path d="M7105 3907 c-4 -10 -5 -21 -1 -24 10 -10 18 4 13 24 -4 17 -4 17 -12
0z"/>
    <path d="M7040 3889 c-7 -11 -9 -23 -6 -27 3 -3 6 0 6 6 0 6 7 18 16 26 8 9
11 16 5 16 -6 0 -15 -9 -21 -21z"/>
    <path d="M3421 3886 c-6 -8 -25 -19 -41 -26 -17 -7 -30 -20 -30 -29 1 -31 44
-50 126 -54 44 -3 100 -10 126 -17 52 -13 138 -6 138 12 0 6 12 8 30 5 31 -7
38 4 21 32 -9 14 -64 38 -111 48 -14 3 -30 9 -36 14 -12 10 -131 28 -180 29
-17 0 -37 -6 -43 -14z m115 -45 c-4 -5 0 -11 6 -14 8 -2 9 -8 4 -13 -5 -5 -11
-4 -13 4 -3 6 -9 10 -14 7 -5 -4 -6 1 -3 9 3 9 10 16 16 16 5 0 7 -4 4 -9z
m124 -27 c0 -8 -19 -13 -24 -6 -3 5 1 9 9 9 8 0 15 -2 15 -3z m70 2 c0 -3 -4
-8 -10 -11 -5 -3 -10 -1 -10 4 0 6 5 11 10 11 6 0 10 -2 10 -4z m-30 -16 c0
-5 -2 -10 -4 -10 -3 0 -8 5 -11 10 -3 6 -1 10 4 10 6 0 11 -4 11 -10z"/>
    <path d="M5065 3888 c-27 -3 -70 -9 -94 -12 -75 -10 -172 -49 -189 -75 -15
-23 -15 -25 12 -46 31 -25 81 -36 166 -39 30 0 58 -5 62 -11 5 -6 8 -5 8 3 0
6 6 12 13 12 6 0 58 14 115 32 97 31 102 34 102 60 0 60 -80 92 -195 76z m65
-43 c0 -8 -7 -15 -15 -15 -13 0 -14 3 -3 15 16 18 18 18 18 0z m-10 -55 c-24
-15 -31 -11 -18 10 9 13 16 16 23 9 7 -7 5 -13 -5 -19z"/>
    <path d="M3980 3860 c-8 -5 -10 -10 -5 -10 6 0 17 5 25 10 8 5 11 10 5 10 -5
0 -17 -5 -25 -10z"/>
    <path d="M7121 3854 c0 -11 3 -14 6 -6 3 7 2 16 -1 19 -3 4 -6 -2 -5 -13z"/>
    <path d="M3310 3849 c0 -5 5 -7 10 -4 6 3 10 8 10 11 0 2 -4 4 -10 4 -5 0 -10
-5 -10 -11z"/>
    <path d="M3270 3846 c0 -2 7 -7 16 -10 8 -3 12 -2 9 4 -6 10 -25 14 -25 6z"/>
    <path d="M1230 3829 c0 -5 5 -7 10 -4 6 3 10 8 10 11 0 2 -4 4 -10 4 -5 0 -10
-5 -10 -11z"/>
    <path d="M1255 3820 c-3 -5 -1 -10 4 -10 6 0 11 5 11 10 0 6 -2 10 -4 10 -3 0
-8 -4 -11 -10z"/>
    <path d="M6908 3813 c6 -2 18 -2 25 0 6 3 1 5 -13 5 -14 0 -19 -2 -12 -5z"/>
    <path d="M7020 3803 c0 -6 8 -17 18 -24 16 -13 16 -13 2 6 -8 11 -16 22 -17
24 -2 2 -3 0 -3 -6z"/>
    <path d="M6883 3783 c9 -2 23 -2 30 0 6 3 -1 5 -18 5 -16 0 -22 -2 -12 -5z"/>
    <path d="M6978 3773 c6 -2 18 -2 25 0 6 3 1 5 -13 5 -14 0 -19 -2 -12 -5z"/>
    <path d="M7138 3773 c6 -2 18 -2 25 0 6 3 1 5 -13 5 -14 0 -19 -2 -12 -5z"/>
    <path d="M7248 3773 c7 -3 16 -2 19 1 4 3 -2 6 -13 5 -11 0 -14 -3 -6 -6z"/>
    <path d="M1380 3760 c0 -5 7 -10 16 -10 8 0 12 5 9 10 -3 6 -10 10 -16 10 -5
0 -9 -4 -9 -10z"/>
    <path d="M7026 3752 c-3 -5 1 -9 9 -9 8 0 12 4 9 9 -3 4 -7 8 -9 8 -2 0 -6 -4
-9 -8z"/>
    <path d="M3390 3742 c-16 -3 -50 -68 -50 -93 0 -44 64 -78 105 -56 18 10 17
11 -15 24 l-35 13 32 -6 c26 -4 36 0 54 20 11 13 31 27 44 30 25 6 40 42 21
50 -8 3 -8 5 1 5 6 1 15 -3 18 -9 8 -13 45 -13 45 1 0 5 5 7 10 4 6 -3 10 -1
10 5 0 7 -27 10 -77 10 -43 -1 -94 0 -113 2 -20 2 -42 2 -50 0z m25 -52 c3 -5
1 -10 -4 -10 -6 0 -11 5 -11 10 0 6 2 10 4 10 3 0 8 -4 11 -10z m68 -14 c8 5
8 3 0 -6 -7 -8 -23 -15 -35 -17 -20 -2 -21 -1 -5 8 9 5 18 18 18 27 1 15 2 15
6 -1 3 -10 10 -14 16 -11z m-33 4 c0 -5 -4 -10 -10 -10 -5 0 -10 5 -10 10 0 6
5 10 10 10 6 0 10 -4 10 -10z m-40 -25 c0 -8 -8 -15 -17 -14 -11 0 -13 3 -5 6
6 2 10 9 6 14 -3 5 0 9 5 9 6 0 11 -7 11 -15z"/>
    <path d="M5067 3713 c-12 -19 -19 -111 -10 -116 6 -4 8 3 6 17 -3 13 0 40 6
61 10 37 9 56 -2 38z"/>
    <path d="M4726 3695 c-19 -15 -19 -15 4 -40 13 -14 26 -23 28 -20 3 3 -3 11
-13 18 -14 11 -16 18 -7 33 11 18 11 18 12 1 0 -10 5 -15 10 -12 6 3 10 -3 10
-15 0 -25 23 -22 28 4 8 39 -36 58 -72 31z"/>
    <path d="M7066 3697 c3 -10 9 -15 12 -12 3 3 0 11 -7 18 -10 9 -11 8 -5 -6z"/>
    <path d="M4984 3677 c3 -12 -4 -27 -21 -41 -22 -19 -24 -25 -14 -44 6 -12 16
-22 21 -22 15 0 12 -33 -6 -59 -16 -22 -16 -23 5 -16 13 4 21 2 21 -5 0 -6 5
-8 10 -5 18 11 11 -21 -10 -45 -11 -13 -20 -33 -20 -45 0 -24 -43 -70 -58 -61
-5 3 -9 -1 -9 -8 0 -7 7 -13 16 -12 19 1 61 58 61 81 0 9 10 29 21 45 16 21
20 35 14 57 -4 15 -10 22 -12 15 -3 -6 -8 -10 -13 -7 -11 7 0 45 13 45 5 0 -3
12 -18 26 -28 26 -29 27 -9 43 10 9 21 23 23 31 2 8 5 22 8 31 3 10 -2 16 -12
16 -11 0 -15 -6 -11 -20z"/>
    <path d="M4833 3653 c-16 -6 -17 -45 -1 -61 19 -19 48 -14 57 10 15 40 -16 68
-56 51z m43 -48 c-3 -8 -10 -15 -15 -15 -12 0 -9 33 4 42 12 9 19 -7 11 -27z"/>
    <path d="M4546 3614 c-8 -20 11 -44 34 -44 20 0 32 23 24 45 -8 20 -50 19 -58
-1z m54 -14 c0 -5 -2 -10 -4 -10 -3 0 -8 5 -11 10 -3 6 -1 10 4 10 6 0 11 -4
11 -10z"/>
    <path d="M4992 3611 c-11 -7 -11 -9 0 -14 9 -3 15 1 15 9 0 8 -1 14 -1 14 -1
0 -7 -4 -14 -9z"/>
    <path d="M4653 3594 c-9 -24 10 -49 38 -49 18 0 25 6 27 24 6 38 -52 59 -65
25z m57 -14 c0 -5 -7 -7 -15 -4 -8 4 -15 8 -15 10 0 2 7 4 15 4 8 0 15 -4 15
-10z"/>
    <path d="M3680 3539 c-14 -6 -57 -10 -97 -10 -73 0 -105 -10 -169 -53 -25 -18
-30 -28 -33 -66 -2 -42 0 -46 32 -63 33 -18 35 -18 93 2 32 10 60 25 62 33 2
8 0 9 -5 3 -4 -6 -24 -12 -43 -14 -19 -1 -38 -9 -43 -16 -4 -7 -13 -12 -20
-11 -19 3 -53 25 -39 26 7 0 10 5 7 10 -5 8 -11 7 -21 -1 -11 -9 -14 -8 -14 6
0 12 6 16 20 12 11 -3 20 -2 20 2 0 12 37 6 55 -9 15 -13 17 -12 13 8 -1 11 2
21 7 20 6 -1 9 -9 7 -20 -2 -10 2 -18 8 -18 6 0 8 5 4 11 -4 7 0 9 14 5 15 -5
24 -1 32 14 6 11 15 18 20 15 9 -6 70 26 70 38 0 4 4 7 9 7 17 0 61 46 61 64
0 18 -13 19 -50 5z m-56 -34 c-4 -8 -11 -15 -16 -15 -6 0 -5 6 2 15 7 8 14 15
16 15 2 0 1 -7 -2 -15z m-40 -11 c30 -29 19 -33 -14 -4 -13 11 -18 20 -12 20
6 0 18 -7 26 -16z m91 -3 c-3 -6 -11 -11 -16 -11 -5 0 -4 6 3 14 14 16 24 13
13 -3z m-97 -30 c3 -8 -4 -10 -22 -5 -17 4 -26 2 -26 -6 0 -6 4 -9 9 -5 5 3
13 0 17 -6 7 -12 -20 -8 -62 8 -12 4 -15 3 -10 -5 5 -8 -3 -12 -23 -12 -17 0
-31 4 -31 10 0 5 7 7 15 4 9 -4 15 0 15 10 0 12 5 14 25 6 17 -6 25 -6 25 1 0
6 4 8 8 5 4 -2 14 -1 22 4 18 12 32 8 38 -9z m57 -2 c-10 -15 -25 -10 -19 6 4
8 10 12 15 9 5 -3 7 -10 4 -15z"/>
    <path d="M4761 3536 c-15 -17 -4 -63 16 -70 20 -8 53 11 53 30 0 45 -44 71
-69 40z"/>
    <path d="M5031 3527 c-13 -21 -12 -21 5 -5 10 10 16 20 13 22 -3 3 -11 -5 -18
-17z"/>
    <path d="M4605 3512 c-18 -19 11 -72 40 -72 16 0 27 27 20 50 -5 17 -49 33
-60 22z m50 -43 c-4 -5 -12 -9 -18 -8 -9 0 -8 2 1 6 6 2 9 10 6 15 -4 7 -2 8
5 4 6 -4 9 -12 6 -17z"/>
    <path d="M4893 3483 c9 -2 25 -2 35 0 9 3 1 5 -18 5 -19 0 -27 -2 -17 -5z"/>
    <path d="M2181 3471 c-9 -6 -6 -8 13 -8 14 0 23 3 20 8 -7 11 -15 11 -33 0z"/>
    <path d="M4875 3461 c-3 -5 -2 -12 3 -15 5 -3 9 1 9 9 0 17 -3 19 -12 6z"/>
    <path d="M4903 3453 c0 -10 4 -23 9 -30 5 -6 6 -24 3 -40 -5 -27 -5 -27 5 -4
6 13 7 33 3 45 -4 12 -6 27 -5 34 2 6 -1 12 -6 12 -5 0 -9 -8 -9 -17z"/>
    <path d="M3583 3398 c-2 -16 1 -18 10 -9 7 7 8 14 1 21 -6 6 -10 2 -11 -12z"/>
    <path d="M4712 3398 c-19 -19 -14 -38 13 -48 36 -14 57 -2 53 29 -2 19 -9 27
-28 29 -14 2 -31 -3 -38 -10z m58 -8 c0 -5 -5 -10 -11 -10 -5 0 -7 5 -4 10 3
6 8 10 11 10 2 0 4 -4 4 -10z m0 -24 c0 -2 -7 -6 -15 -10 -8 -3 -15 -1 -15 4
0 6 7 10 15 10 8 0 15 -2 15 -4z"/>
    <path d="M4850 3385 c-6 -8 -9 -19 -5 -25 3 -5 1 -10 -4 -10 -6 0 -11 -5 -11
-11 0 -5 4 -8 9 -5 17 11 21 -25 6 -47 -19 -27 -19 -42 -1 -25 8 7 12 15 10
17 -2 2 1 10 7 17 7 9 7 19 0 32 -7 13 -7 22 1 30 7 7 8 12 3 12 -6 0 -4 4 4
9 8 5 9 11 3 15 -5 3 -15 -1 -22 -9z"/>
    <path d="M7230 3390 c0 -5 5 -10 11 -10 5 0 7 5 4 10 -3 6 -8 10 -11 10 -2 0
-4 -4 -4 -10z"/>
    <path d="M3453 3375 c0 -8 4 -15 9 -15 4 0 8 4 8 9 0 6 -4 12 -8 15 -5 3 -9
-1 -9 -9z"/>
    <path d="M3961 3373 c-7 -8 -10 -17 -7 -20 9 -9 29 13 25 25 -2 6 -10 3 -18
-5z"/>
    <path d="M3525 3319 c-56 -45 -63 -60 -41 -82 8 -8 12 -17 9 -21 -4 -3 1 -6
10 -6 10 0 16 -3 15 -7 -2 -5 2 -9 7 -9 6 -1 9 2 8 7 -2 4 4 6 11 3 8 -3 12
-12 9 -20 -3 -8 0 -14 6 -14 6 0 11 4 11 9 0 5 12 14 28 19 24 9 25 10 5 11
-26 1 -32 21 -7 21 9 0 12 5 8 12 -4 7 -3 8 5 4 6 -4 9 -12 6 -17 -4 -5 3 -9
13 -9 14 0 21 8 24 30 5 34 0 45 -22 45 -8 0 -16 10 -18 23 -2 14 -10 22 -23
22 -11 0 -17 5 -14 10 10 16 3 12 -50 -31z m65 -65 c0 -8 -6 -11 -15 -8 -8 4
-15 1 -15 -5 0 -6 -7 -8 -16 -4 -15 6 -15 7 -1 18 22 16 47 15 47 -1z"/>
    <path d="M4627 3345 c-3 -7 2 -24 13 -37 l19 -23 -4 35 c-4 27 -3 30 4 15 6
-11 10 -14 10 -6 1 11 4 11 16 1 13 -11 14 -10 10 3 -4 8 -16 18 -28 21 -31 8
-34 8 -40 -9z"/>
    <path d="M4424 3308 c-9 -15 -11 -118 -2 -118 4 0 8 -24 8 -53 0 -52 40 -157
60 -157 5 0 12 -9 15 -21 5 -15 13 -19 27 -16 12 3 18 1 15 -6 -5 -17 -68 -21
-79 -5 -10 14 -2 -97 8 -113 3 -5 14 -9 25 -9 13 0 19 -6 17 -17 -2 -13 5 -17
34 -19 20 -1 41 3 46 9 14 19 34 96 27 107 -3 5 -9 29 -13 52 l-7 42 -23 -24
-22 -24 0 80 c0 101 -15 187 -41 242 -11 23 -21 42 -22 42 -1 0 -17 4 -34 9
-22 6 -35 6 -39 -1z m96 -408 c0 -5 -2 -10 -4 -10 -3 0 -8 5 -11 10 -3 6 -1
10 4 10 6 0 11 -4 11 -10z m-17 -47 c-3 -7 -6 -13 -8 -13 -2 0 -5 6 -8 13 -3
8 1 14 8 14 7 0 11 -6 8 -14z m42 -53 c3 -5 1 -10 -4 -10 -6 0 -11 5 -11 10 0
6 2 10 4 10 3 0 8 -4 11 -10z"/>
    <path d="M4670 3300 c0 -5 7 -7 15 -4 8 4 15 8 15 10 0 2 -7 4 -15 4 -8 0 -15
-4 -15 -10z"/>
    <path d="M4891 3271 c-10 -10 -27 -24 -37 -30 -15 -8 -16 -10 -3 -11 8 0 28
14 44 30 31 32 27 42 -4 11z"/>
    <path d="M4760 3273 c8 -3 24 -10 35 -15 20 -9 20 -9 1 6 -11 9 -27 16 -35 15
-14 0 -14 -1 -1 -6z"/>
    <path d="M4620 3263 c-8 -3 -18 -11 -22 -17 -12 -17 -9 -61 3 -73 7 -7 13 -29
14 -50 1 -21 6 -49 12 -63 5 -14 18 -50 28 -80 22 -63 39 -86 77 -106 16 -8
28 -21 28 -29 0 -17 16 -20 25 -5 4 6 12 7 18 3 7 -4 4 4 -5 18 -15 24 -15 27
1 41 17 15 17 19 2 77 -8 33 -21 61 -28 61 -7 0 -10 7 -7 15 3 8 -1 24 -10 37
-9 12 -16 29 -16 36 0 15 38 51 55 52 6 0 21 10 35 21 l25 21 -28 -17 c-16 -9
-36 -14 -45 -10 -9 3 -13 3 -10 -1 4 -3 0 -13 -8 -21 -12 -12 -18 -13 -29 -3
-18 15 -20 31 -2 24 9 -3 11 6 8 38 -5 40 -6 41 -9 11 -2 -18 -6 -33 -9 -33
-3 0 -18 14 -33 30 -28 30 -41 34 -70 23z m70 -168 c0 -8 -2 -15 -4 -15 -2 0
-6 7 -10 15 -3 8 -1 15 4 15 6 0 10 -7 10 -15z m100 -234 c0 -6 -4 -12 -8 -15
-5 -3 -9 1 -9 9 0 8 4 15 9 15 4 0 8 -4 8 -9z"/>
    <path d="M4323 3153 c-32 -79 -39 -332 -10 -377 10 -15 22 -24 27 -21 6 3 7
-1 4 -9 -10 -26 15 -18 47 13 l29 29 -5 139 c-7 182 -13 221 -36 244 -27 27
-38 24 -56 -18z"/>
    <path d="M1435 3141 c-6 -11 13 -26 22 -17 4 3 1 6 -6 6 -7 0 -9 5 -6 10 3 6
4 10 1 10 -3 0 -7 -4 -11 -9z"/>
    <path d="M3797 3061 c-51 -55 -64 -86 -50 -128 20 -61 135 -29 177 49 22 41
16 68 -14 68 -14 0 -24 10 -31 30 -6 17 -17 30 -24 30 -7 0 -33 -22 -58 -49z
m25 -57 c-8 -15 -9 -15 -15 0 -4 10 -3 15 3 11 6 -3 10 2 11 12 0 10 3 13 5 6
3 -7 1 -20 -4 -29z m35 -45 c0 -8 -10 -16 -23 -17 -21 -2 -22 1 -13 28 9 24
13 27 23 17 7 -7 13 -19 13 -28z"/>
    <path d="M3830 2970 c0 -5 5 -10 11 -10 5 0 7 5 4 10 -3 6 -8 10 -11 10 -2 0
-4 -4 -4 -10z"/>
    <path d="M3475 2959 c-4 -6 -5 -12 -2 -15 2 -3 7 2 10 11 7 17 1 20 -8 4z"/>
    <path d="M4130 2929 c0 -5 5 -7 10 -4 6 3 10 8 10 11 0 2 -4 4 -10 4 -5 0 -10
-5 -10 -11z"/>
    <path d="M4200 2933 c-8 -4 -21 -12 -28 -20 -7 -7 -19 -13 -27 -13 -16 0 -25
-22 -25 -66 0 -26 3 -32 16 -27 12 4 14 0 8 -21 -5 -22 -3 -26 16 -26 11 0 19
-4 16 -9 -4 -5 8 -7 26 -4 18 3 35 9 36 14 2 5 10 9 18 9 8 0 14 5 14 10 0 6
-4 10 -10 10 -5 0 -7 6 -4 13 3 8 -2 20 -11 27 -17 14 -20 30 -4 30 5 0 8 -4
4 -9 -6 -11 13 -26 22 -18 10 11 -9 47 -25 47 -13 0 -13 3 4 16 10 8 13 13 7
9 -9 -4 -13 1 -13 14 0 21 -12 25 -40 14z m12 -25 c-7 -7 -12 -8 -12 -2 0 6 3
14 7 17 3 4 9 5 12 2 2 -3 -1 -11 -7 -17z m-14 -28 c3 -9 -1 -11 -11 -7 -10 4
-21 -1 -27 -11 -11 -16 -11 -15 -6 1 3 10 6 22 6 27 0 13 33 5 38 -10z"/>
    <path d="M1815 2800 c4 -6 11 -8 16 -5 14 9 11 15 -7 15 -8 0 -12 -5 -9 -10z"/>
    <path d="M1882 2794 c-7 -8 -8 -14 -3 -14 10 0 25 19 20 25 -2 1 -10 -3 -17
-11z"/>
    <path d="M2980 2800 c0 -5 7 -10 15 -10 8 0 15 5 15 10 0 6 -7 10 -15 10 -8 0
-15 -4 -15 -10z"/>
    <path d="M4831 2794 c0 -11 3 -14 6 -6 3 7 2 16 -1 19 -3 4 -6 -2 -5 -13z"/>
    <path d="M4806 2777 c3 -10 9 -15 12 -12 3 3 0 11 -7 18 -10 9 -11 8 -5 -6z"/>
    <path d="M1718 2763 c7 -3 16 -2 19 1 4 3 -2 6 -13 5 -11 0 -14 -3 -6 -6z"/>
    <path d="M3993 2745 c-7 -8 -9 -16 -4 -19 5 -3 12 1 15 10 8 22 4 25 -11 9z"/>
    <path d="M1720 2740 c-13 -8 -12 -10 3 -10 9 0 17 5 17 10 0 12 -1 12 -20 0z"/>
    <path d="M4831 2740 c0 -8 13 -35 29 -59 17 -24 30 -38 30 -31 0 7 -11 27 -23
44 -13 17 -26 38 -30 46 -5 13 -5 13 -6 0z"/>
    <path d="M1588 2733 c7 -3 16 -2 19 1 4 3 -2 6 -13 5 -11 0 -14 -3 -6 -6z"/>
    <path d="M1620 2736 c0 -2 7 -7 16 -10 8 -3 12 -2 9 4 -6 10 -25 14 -25 6z"/>
    <path d="M1468 2653 c7 -3 16 -2 19 1 4 3 -2 6 -13 5 -11 0 -14 -3 -6 -6z"/>
    <path d="M1350 2640 c-8 -5 -10 -10 -5 -10 6 0 17 5 25 10 8 5 11 10 5 10 -5
0 -17 -5 -25 -10z"/>
    <path d="M4172 2590 c0 -14 2 -19 5 -12 2 6 2 18 0 25 -3 6 -5 1 -5 -13z"/>
    <path d="M4591 2594 c0 -11 3 -14 6 -6 3 7 2 16 -1 19 -3 4 -6 -2 -5 -13z"/>
    <path d="M4600 2546 c0 -14 4 -27 8 -30 5 -3 6 8 4 25 -5 35 -12 38 -12 5z"/>
    <path d="M5645 2540 c-3 -5 -1 -10 4 -10 6 0 11 5 11 10 0 6 -2 10 -4 10 -3 0
-8 -4 -11 -10z"/>
    <path d="M1521 2501 c-8 -13 -8 -22 -1 -26 6 -4 9 -1 8 6 -2 6 3 14 10 16 8 3
10 -1 6 -11 -3 -9 -4 -16 -1 -16 13 0 14 30 2 40 -11 9 -16 7 -24 -9z"/>
    <path d="M4642 2500 c0 -14 2 -19 5 -12 2 6 2 18 0 25 -3 6 -5 1 -5 -13z"/>
    <path d="M4642 2435 c0 -16 2 -22 5 -12 2 9 2 23 0 30 -3 6 -5 -1 -5 -18z"/>
    <path d="M4644 2378 c-4 -6 -3 -8 4 -4 5 3 13 0 15 -6 3 -8 6 -6 6 5 1 19 -14
23 -25 5z"/>
    <path d="M3845 2320 c-3 -5 -1 -10 4 -10 6 0 11 5 11 10 0 6 -2 10 -4 10 -3 0
-8 -4 -11 -10z"/>
    <path d="M1537 2304 c-8 -8 1 -24 14 -24 5 0 9 7 9 15 0 15 -12 20 -23 9z"/>
    <path d="M1589 2291 c11 -7 11 -9 0 -14 -8 -3 11 -3 41 0 65 6 84 16 23 12
-23 -2 -45 0 -49 4 -4 4 -12 7 -18 7 -6 0 -5 -4 3 -9z"/>
    <path d="M4692 2260 c0 -14 2 -19 5 -12 2 6 2 18 0 25 -3 6 -5 1 -5 -13z"/>
    <path d="M4660 2265 c0 -5 5 -17 10 -25 5 -8 10 -10 10 -5 0 6 -5 17 -10 25
-5 8 -10 11 -10 5z"/>
    <path d="M1765 2199 c-11 -17 1 -21 15 -4 8 9 8 15 2 15 -6 0 -14 -5 -17 -11z"/>
    <path d="M4702 2185 c0 -16 2 -22 5 -12 2 9 2 23 0 30 -3 6 -5 -1 -5 -18z"/>
    <path d="M3960 1975 c0 -5 5 -17 10 -25 5 -8 10 -10 10 -5 0 6 -5 17 -10 25
-5 8 -10 11 -10 5z"/>
    <path d="M1842 1950 c0 -14 2 -19 5 -12 2 6 2 18 0 25 -3 6 -5 1 -5 -13z"/>
    <path d="M1821 1944 c0 -11 3 -14 6 -6 3 7 2 16 -1 19 -3 4 -6 -2 -5 -13z"/>
    <path d="M4768 1837 c-3 -13 -1 -32 3 -43 5 -13 8 -7 8 24 1 46 -4 55 -11 19z"/>
    <path d="M2307 1774 c-28 -28 -42 -35 -61 -30 -15 4 -28 0 -36 -10 -7 -8 -19
-13 -27 -10 -7 3 -13 -1 -13 -10 0 -11 6 -13 20 -9 15 5 22 0 30 -20 5 -14 15
-23 20 -20 6 4 4 12 -5 21 -20 20 -19 44 1 44 9 0 12 -5 8 -12 -6 -10 -5 -10
8 0 12 10 18 9 28 -3 11 -14 7 -19 -12 -16 -5 0 -8 -3 -8 -8 0 -6 9 -9 20 -8
11 1 20 7 20 15 0 8 9 27 21 44 12 16 18 32 15 35 -3 3 -1 12 5 20 21 25 3 13
-34 -23z m11 -23 c-14 -22 -44 -40 -32 -18 12 21 37 47 41 43 3 -2 -1 -13 -9
-25z"/>
    <path d="M2150 1660 c-13 -8 -12 -10 3 -10 9 0 17 5 17 10 0 12 -1 12 -20 0z"/>
    <path d="M2300 1636 c0 -2 7 -7 16 -10 8 -3 12 -2 9 4 -6 10 -25 14 -25 6z"/>
    <path d="M2106 1564 c-5 -14 -4 -15 9 -4 17 14 19 20 6 20 -5 0 -12 -7 -15
-16z"/>
    <path d="M2226 1532 c-5 -29 -5 -56 -2 -59 3 -4 6 1 6 11 0 9 5 14 10 11 11
-7 12 27 1 65 -7 21 -9 16 -15 -28z"/>
    <path d="M2360 1569 c0 -6 -7 -8 -16 -5 -8 3 -12 2 -9 -3 9 -15 44 -9 38 6 -6
16 -13 17 -13 2z"/>
    <path d="M2045 1531 c-30 -35 -30 -35 -3 -16 24 18 43 44 36 50 -2 1 -16 -14
-33 -34z"/>
    <path d="M2040 1485 c-7 -9 -10 -18 -7 -21 3 -3 10 4 17 15 13 25 8 27 -10 6z"/>
    <path d="M1987 1449 c7 -7 15 -10 18 -7 3 3 -2 9 -12 12 -14 6 -15 5 -6 -5z"/>
    <path d="M5581 1433 c7 -12 15 -20 18 -17 3 2 -3 12 -13 22 -17 16 -18 16 -5
-5z"/>
    <path d="M3111 1384 c0 -11 3 -14 6 -6 3 7 2 16 -1 19 -3 4 -6 -2 -5 -13z"/>
    <path d="M5616 1387 c3 -10 9 -15 12 -12 3 3 0 11 -7 18 -10 9 -11 8 -5 -6z"/>
    <path d="M3615 1349 c-4 -6 -5 -12 -2 -15 2 -3 7 2 10 11 7 17 1 20 -8 4z"/>
    <path d="M4221 1344 c0 -11 3 -14 6 -6 3 7 2 16 -1 19 -3 4 -6 -2 -5 -13z"/>
    <path d="M2181 1318 c-1 -22 4 -28 19 -28 11 0 20 4 20 10 0 5 -6 7 -14 4 -9
-4 -16 3 -19 18 -4 21 -4 20 -6 -4z"/>
    <path d="M2317 1315 c2 -7 13 -11 24 -8 25 7 24 10 -5 15 -16 3 -23 1 -19 -7z"/>
    <path d="M2697 1304 c22 -9 31 -19 27 -29 -4 -8 -1 -15 5 -15 26 0 10 38 -20
49 -44 15 -51 12 -12 -5z"/>
    <path d="M3605 1301 c-3 -5 -1 -12 5 -16 5 -3 10 1 10 9 0 18 -6 21 -15 7z"/>
    <path d="M2696 1263 c-6 -14 -5 -15 5 -6 7 7 10 15 7 18 -3 3 -9 -2 -12 -12z"/>
    <path d="M3891 1234 c0 -11 3 -14 6 -6 3 7 2 16 -1 19 -3 4 -6 -2 -5 -13z"/>
    <path d="M2640 1229 c0 -5 5 -7 10 -4 6 3 10 8 10 11 0 2 -4 4 -10 4 -5 0 -10
-5 -10 -11z"/>
    <path d="M2606 1205 c-11 -8 -17 -17 -14 -20 2 -3 13 4 23 15 21 23 18 25 -9
5z"/>
    <path d="M2685 1211 c-3 -6 -12 -8 -18 -4 -8 4 -7 1 1 -9 11 -14 11 -21 1 -40
-11 -20 -11 -22 3 -10 9 7 19 24 23 39 6 27 1 41 -10 24z"/>
    <path d="M4011 1193 c-10 -22 -10 -25 2 -15 8 7 16 9 20 6 3 -3 3 3 0 15 -7
27 -7 26 -22 -6z"/>
    <path d="M3680 1201 c0 -6 4 -13 10 -16 6 -3 7 1 4 9 -7 18 -14 21 -14 7z"/>
    <path d="M2771 1164 c0 -11 3 -14 6 -6 3 7 2 16 -1 19 -3 4 -6 -2 -5 -13z"/>
    <path d="M2737 1163 c-3 -5 -2 -15 2 -22 5 -7 11 -9 14 -4 3 5 2 15 -2 22 -5
7 -11 9 -14 4z"/>
    <path d="M3526 1135 c-9 -26 -7 -32 5 -12 6 10 9 21 6 23 -2 3 -7 -2 -11 -11z"/>
    <path d="M4900 1130 c0 -5 5 -10 11 -10 5 0 7 5 4 10 -3 6 -8 10 -11 10 -2 0
-4 -4 -4 -10z"/>
    <path d="M4001 1114 c0 -11 3 -14 6 -6 3 7 2 16 -1 19 -3 4 -6 -2 -5 -13z"/>
    <path d="M4022 1105 c0 -16 2 -22 5 -12 2 9 2 23 0 30 -3 6 -5 -1 -5 -18z"/>
    <path d="M3540 1109 c0 -5 5 -7 10 -4 6 3 10 8 10 11 0 2 -4 4 -10 4 -5 0 -10
-5 -10 -11z"/>
    <path d="M2788 1103 c6 -2 9 -10 6 -15 -4 -7 -2 -8 5 -4 13 9 5 26 -12 25 -9
0 -8 -2 1 -6z"/>
    <path d="M4910 1099 c0 -5 5 -7 10 -4 6 3 10 8 10 11 0 2 -4 4 -10 4 -5 0 -10
-5 -10 -11z"/>
    <path d="M2595 1089 c-4 -6 -5 -12 -2 -15 2 -3 7 2 10 11 7 17 1 20 -8 4z"/>
    <path d="M2662 1087 c-6 -7 -7 -19 -3 -26 6 -9 10 -6 14 10 8 28 3 34 -11 16z"/>
    <path d="M4473 1079 c-2 -23 3 -25 10 -4 4 8 3 16 -1 19 -4 3 -9 -4 -9 -15z"/>
    <path d="M2811 1066 c-8 -10 -8 -16 1 -24 10 -8 13 -4 13 14 0 28 1 28 -14 10z"/>
    <path d="M4931 1064 c0 -11 3 -14 6 -6 3 7 2 16 -1 19 -3 4 -6 -2 -5 -13z"/>
    <path d="M4006 1044 c4 -16 3 -25 -2 -21 -13 7 -10 -33 3 -57 9 -15 11 -7 10
42 -1 34 -5 62 -9 62 -5 0 -5 -12 -2 -26z"/>
    <path d="M4901 1047 c-13 -21 -12 -21 5 -5 10 10 16 20 13 22 -3 3 -11 -5 -18
-17z"/>
    <path d="M3228 1033 c7 -3 16 -2 19 1 4 3 -2 6 -13 5 -11 0 -14 -3 -6 -6z"/>
    <path d="M3497 1033 c-4 -3 -7 -11 -7 -17 0 -6 5 -5 12 2 6 6 9 14 7 17 -3 3
-9 2 -12 -2z"/>
    <path d="M3806 1025 c4 -8 10 -15 15 -15 4 0 6 7 3 15 -4 8 -10 15 -15 15 -4
0 -6 -7 -3 -15z"/>
    <path d="M3465 1020 c3 -5 8 -10 11 -10 2 0 4 5 4 10 0 6 -5 10 -11 10 -5 0
-7 -4 -4 -10z"/>
    <path d="M2840 1005 c-11 -13 -10 -14 4 -9 9 3 16 10 16 15 0 13 -6 11 -20 -6z"/>
    <path d="M2557 989 c7 -7 15 -10 18 -7 3 3 -2 9 -12 12 -14 6 -15 5 -6 -5z"/>
    <path d="M4837 985 c-4 -8 -3 -16 1 -19 4 -3 9 4 9 15 2 23 -3 25 -10 4z"/>
    <path d="M2791 974 c0 -11 3 -14 6 -6 3 7 2 16 -1 19 -3 4 -6 -2 -5 -13z"/>
    <path d="M2606 964 c-7 -19 2 -37 14 -29 5 3 6 13 3 22 -5 12 -3 14 7 8 9 -5
11 -4 6 3 -10 17 -23 15 -30 -4z"/>
    <path d="M3385 971 c-3 -5 -2 -12 3 -15 5 -3 9 1 9 9 0 17 -3 19 -12 6z"/>
    <path d="M4900 970 c0 -5 5 -10 11 -10 5 0 7 5 4 10 -3 6 -8 10 -11 10 -2 0
-4 -4 -4 -10z"/>
    <path d="M2862 935 c0 -16 2 -22 5 -12 2 9 2 23 0 30 -3 6 -5 -1 -5 -18z"/>
    <path d="M3335 934 c-19 -15 -22 -21 -9 -15 18 9 52 41 43 41 -2 0 -17 -12
-34 -26z"/>
    <path d="M4806 945 c-3 -8 -1 -15 4 -15 13 0 22 18 11 24 -5 3 -11 -1 -15 -9z"/>
    <path d="M4195 940 c3 -5 8 -10 11 -10 2 0 4 5 4 10 0 6 -5 10 -11 10 -5 0 -7
-4 -4 -10z"/>
    <path d="M5011 947 c2 -1 13 -9 24 -17 19 -14 19 -14 6 3 -7 9 -18 17 -24 17
-6 0 -8 -1 -6 -3z"/>
    <path d="M4941 914 c0 -11 3 -14 6 -6 3 7 2 16 -1 19 -3 4 -6 -2 -5 -13z"/>
    <path d="M4971 894 c0 -11 3 -14 6 -6 3 7 2 16 -1 19 -3 4 -6 -2 -5 -13z"/>
    <path d="M2808 893 c7 -3 16 -2 19 1 4 3 -2 6 -13 5 -11 0 -14 -3 -6 -6z"/>
    <path d="M3359 883 c-13 -16 -12 -17 4 -4 16 13 21 21 13 21 -2 0 -10 -8 -17
-17z"/>
    <path d="M3778 893 c6 -2 18 -2 25 0 6 3 1 5 -13 5 -14 0 -19 -2 -12 -5z"/>
    <path d="M3208 873 c7 -3 16 -2 19 1 4 3 -2 6 -13 5 -11 0 -14 -3 -6 -6z"/>
    <path d="M4747 853 c-11 -13 -16 -27 -13 -30 3 -4 6 0 6 8 0 12 2 11 11 -1 9
-13 10 -13 6 1 -3 9 0 22 6 28 6 6 9 13 6 15 -2 2 -12 -7 -22 -21z"/>
    <path d="M5330 870 c0 -5 5 -10 11 -10 5 0 7 5 4 10 -3 6 -8 10 -11 10 -2 0
-4 -4 -4 -10z"/>
    <path d="M3150 835 c-7 -9 -11 -17 -9 -20 3 -2 10 5 17 15 14 24 10 26 -8 5z"/>
    <path d="M4137 839 c7 -7 15 -10 18 -7 3 3 -2 9 -12 12 -14 6 -15 5 -6 -5z"/>
    <path d="M3988 816 c-10 -7 -14 -17 -9 -22 5 -5 11 -16 14 -24 2 -8 3 -3 1 11
-1 14 2 31 9 38 15 15 6 14 -15 -3z"/>
    <path d="M4041 801 c-9 -6 -10 -11 -2 -15 6 -4 11 -2 11 4 0 6 5 8 12 4 7 -4
8 -3 4 4 -8 14 -7 14 -25 3z"/>
    <path d="M3966 764 c-7 -19 0 -34 17 -34 9 0 8 3 -1 8 -7 5 -10 16 -6 25 3 9
4 17 1 17 -3 0 -8 -7 -11 -16z"/>
    <path d="M3451 754 c0 -11 3 -14 6 -6 3 7 2 16 -1 19 -3 4 -6 -2 -5 -13z"/>
    <path d="M3820 731 c0 -8 -7 -11 -17 -6 -15 5 -16 4 -5 -6 9 -10 15 -10 24 -1
6 6 9 15 5 19 -4 3 -7 1 -7 -6z"/>
    <path d="M4332 630 c0 -14 2 -19 5 -12 2 6 2 18 0 25 -3 6 -5 1 -5 -13z"/>
  </g>
</svg>
